<?xml version="1.0" encoding="UTF-8" standalone="no"?>
<!-- Created with Inkscape (http://www.inkscape.org/) -->

<svg
   width="126.93354mm"
   height="126.92023mm"
   viewBox="0 0 126.93354 126.92023"
   version="1.1"
   id="svg5"
   xml:space="preserve"
   inkscape:export-filename="erc721.svg"
   inkscape:export-xdpi="96"
   inkscape:export-ydpi="96"
   sodipodi:docname="erc1155.svg"
   inkscape:version="1.2 (dc2aedaf03, 2022-05-15)"
   xmlns:inkscape="http://www.inkscape.org/namespaces/inkscape"
   xmlns:sodipodi="http://sodipodi.sourceforge.net/DTD/sodipodi-0.dtd"
   xmlns="http://www.w3.org/2000/svg"
   xmlns:svg="http://www.w3.org/2000/svg"><sodipodi:namedview
     id="namedview7"
     pagecolor="#ffffff"
     bordercolor="#999999"
     borderopacity="1"
     inkscape:showpageshadow="0"
     inkscape:pageopacity="0"
     inkscape:pagecheckerboard="0"
     inkscape:deskcolor="#d1d1d1"
     inkscape:document-units="mm"
     showgrid="false"
     inkscape:zoom="1.7656924"
     inkscape:cx="183.78059"
     inkscape:cy="240.4156"
     inkscape:window-width="1920"
     inkscape:window-height="1018"
     inkscape:window-x="0"
     inkscape:window-y="30"
     inkscape:window-maximized="1"
     inkscape:current-layer="layer1" /><defs
     id="defs2" /><g
     inkscape:label="Layer 1"
     inkscape:groupmode="layer"
     id="layer1"
     transform="translate(-70.494211,-1.9033204)"><path
       style="fill:#000000;stroke-width:0.264583"
       d="m 145.90046,128.67382 c -5.56497,-0.64413 -10.63656,-2.17611 -15.77605,-4.76549 -11.02596,-5.55511 -19.04335,-14.70763 -23.12665,-26.401011 l -0.85113,-2.43739 -15.246531,-0.003 -15.24652,-0.003 -1.33763,-0.62287 c -1.56447,-0.728496 -3.07975,-2.380766 -3.51468,-3.832418 -0.21246,-0.70915 -0.30706,-4.54451 -0.30706,-12.44945 v -11.42376 l 0.64943,-0.64943 c 0.85919,-0.85919 2.07528,-0.85919 2.93447,0 l 0.64943,0.64943 v 11.40114 11.40114 l 0.64943,0.64943 0.64944,0.64943 h 17.75113 17.751141 l 0.64943,-0.64943 c 0.63214,-0.63214 0.64944,-0.75574 0.64944,-4.64224 0,-3.88649 0.0173,-4.01009 0.64943,-4.64223 0.61583,-0.61583 0.81029,-0.64943 3.7585,-0.64943 h 3.10908 l -3.75851,-3.79082 -3.7585,-3.79082 v -13.55138 -13.55142 l -0.64944,-0.64943 -0.64943,-0.64943 H 93.777539 76.026409 l -0.64944,0.64943 -0.64943,0.64943 v 7.1678 7.1678 l -0.64943,0.64944 c -0.85919,0.85919 -2.07528,0.85919 -2.93447,0 l -0.64943,-0.64944 v -7.19122 c 0,-4.87273 0.10374,-7.54234 0.32176,-8.28026 0.4294,-1.45331 2.62125,-3.64516 4.07456,-4.07455 0.76271,-0.22535 3.82229,-0.32177 10.21066,-0.32177 h 9.12163 l -0.20686,-1.25677 c -0.69235,-4.20618 0.16125,-9.11162 2.35183,-13.51549 1.17289,-2.35794 1.97942,-3.2194 3.01411,-3.2194 0.967121,0 2.068561,1.05683 2.068561,1.98481 0,0.37727 -0.46693,1.54354 -1.03762,2.59171 -1.688741,3.10168 -2.263601,5.36301 -2.266871,8.91723 -0.002,1.67349 0.0888,3.37013 0.20068,3.77031 l 0.20348,0.7276 h 2.905371 2.90538 v -5.65923 c 0,-5.01258 0.0529,-5.71945 0.46302,-6.18624 0.25466,-0.28985 2.9038,-1.99115 5.88698,-3.78066 4.18248,-2.50893 5.63591,-3.25364 6.35,-3.25364 0.71474,0 2.16364,0.74382 6.35,3.25991 2.98318,1.79296 5.62967,3.51083 5.88109,3.81749 0.40645,0.49575 0.45779,1.31175 0.46302,7.35815 0.004,4.41642 -0.0967,7.0257 -0.28669,7.44272 -0.1937,0.42512 -2.14872,1.76073 -5.78458,3.95186 -3.0206,1.82035 -5.74644,3.39047 -6.05742,3.48918 -0.5149,0.16342 -0.56542,0.36697 -0.56542,2.27829 v 2.09884 h 0.8049 c 1.30463,0 4.75767,-0.79205 6.44874,-1.47919 0.86286,-0.35061 1.73447,-0.63748 1.9369,-0.63748 0.20244,0 1.62235,0.53578 3.15536,1.19063 1.533,0.65484 2.88711,1.19062 3.00912,1.19062 0.12201,0 -0.1278,-1.03436 -0.55513,-2.29859 -1.08076,-3.19729 -1.04067,-3.55433 0.6759,-6.0205 4.31021,-6.19239 4.7051,-13.85561 1.05289,-20.43229 -1.3205,-2.37788 -4.714,-5.77138 -7.09188,-7.09188 -3.26406,-1.81262 -5.37614,-2.35088 -9.30451,-2.37122 -3.9844,-0.0206 -6.06348,0.48203 -9.3141,2.25187 -2.21339,1.2051 -3.0295,1.28577 -3.92709,0.38818 -0.84232,-0.84231 -0.84856,-1.99054 -0.0153,-2.82022 0.78752,-0.78417 3.97914,-2.388619 6.17821,-3.105839 5.08163,-1.65735 11.33247,-1.31584 16.32454,0.89189 5.24565,2.319879 9.88831,7.049379 12.03853,12.263709 1.40017,3.39546 1.72184,5.13149 1.69775,9.1626 -0.0192,3.20702 -0.11647,4.01746 -0.72494,6.03841 -0.38653,1.28384 -0.94725,2.81343 -1.24603,3.39908 -0.29877,0.58566 -0.50005,1.10801 -0.44728,1.16078 0.0528,0.0528 1.02358,-0.19862 2.15734,-0.55866 1.13377,-0.36003 3.15272,-0.84241 4.48657,-1.07195 1.33385,-0.22955 2.47657,-0.46772 2.53939,-0.52928 0.0628,-0.0616 -0.25287,-0.4971 -0.70152,-0.96786 -1.22035,-1.2805 -2.3643,-3.23355 -3.04159,-5.19284 -0.59261,-1.71432 -0.60443,-1.96843 -0.60443,-12.9933 0,-11.063329 0.01,-11.273359 0.61164,-13.014969 1.52365,-4.4096805 4.94639,-7.8771505 9.38358,-9.5062009 1.59108,-0.58415 1.99551,-0.60768 12.02674,-0.69994 l 10.3803,-0.0955 0.66606,0.66605 c 0.80495,0.80495 0.87056,1.9662404 0.16066,2.8436104 l -0.50539,0.62463 -10.27638,0.13229 -10.27638,0.13229 -1.76731,0.83728 c -2.45981,1.16535 -3.99191,2.66534 -5.18204,5.0734005 l -0.98815,1.99937 v 11.007659 11.00765 l 0.98815,1.99937 c 1.70344,3.44669 4.80858,5.61075 8.55232,5.96034 1.39401,0.13018 1.95588,0.31014 2.42125,0.77551 0.56586,0.56585 0.60599,0.82135 0.60599,3.85774 v 3.25176 l 2.5128,-3.76367 c 1.71799,-2.57321 2.70133,-3.80653 3.10885,-3.89919 0.32783,-0.0745 5.00137,-0.16618 10.38564,-0.20366 l 9.78958,-0.0681 1.76732,-0.83728 c 2.45981,-1.16536 3.99191,-2.66534 5.18204,-5.0734 l 0.98814,-1.99938 V 25.219951 14.212292 l -0.98814,-1.99937 c -1.70345,-3.4466905 -4.80859,-5.6107405 -8.55232,-5.9603405 -1.39401,-0.13017 -1.95589,-0.31014 -2.42125,-0.7755 -1.41035,-1.41035 -0.29538,-3.5404704 1.8532,-3.5404704 1.67072,0 5.0012,0.91403 6.77462,1.8592604 3.08618,1.64491 5.87882,5.0775 6.98105,8.5808005 0.56583,1.79841 0.58618,2.24413 0.58618,12.843279 0,10.59914 -0.0204,11.04486 -0.58618,12.84328 -1.41344,4.49242 -5.07647,8.20268 -9.5812,9.70476 -1.59898,0.53317 -2.42004,0.59139 -10.20554,0.7237 l -8.46667,0.14388 1.74762,0.98371 c 6.16579,3.47062 11.94515,9.7773 15.06266,16.43701 5.61121,11.98681 4.6691,26.146902 -2.46237,37.009769 -1.94575,2.96382 -2.62488,3.64555 -3.63168,3.64555 -1.05059,0 -2.11727,-1.03066 -2.11727,-2.04577 0,-0.47588 0.48278,-1.41632 1.33045,-2.59171 2.64043,-3.661251 4.72379,-8.441817 5.73998,-13.171179 0.65906,-3.06727 0.64362,-10.05048 -0.0291,-13.14759 -2.139,-9.8481 -8.07632,-17.96451 -16.76241,-22.91449 -1.12205,-0.63943 -2.17452,-1.16259 -2.33884,-1.16259 -0.45252,0 -5.79658,8.18215 -5.51292,8.44069 0.13344,0.12162 1.52061,1.07156 3.08261,2.11097 2.9433,1.9586 3.35192,2.48381 3.00569,3.86332 -0.16889,0.67291 -1.34889,1.46002 -2.1888,1.46002 -0.25874,0 -3.18241,-1.80452 -6.49705,-4.01003 l -6.02663,-4.01004 -5.85089,3.89952 c -3.49587,2.32993 -6.20306,3.95667 -6.72582,4.0415 -1.5588,0.25296 -2.76914,-1.60671 -1.99145,-3.05984 0.40223,-0.75157 13.83551,-9.56111 14.57933,-9.56111 0.36256,0 1.46159,0.53829 2.4423,1.1962 l 1.78312,1.1962 v -4.20295 -4.20294 l -1.22756,-0.16826 c -3.37655,-0.4628 -8.76359,0.09 -12.76233,1.30973 -2.62061,0.79933 -5.06011,1.83965 -5.06011,2.15787 0,0.12397 0.47625,1.64299 1.05833,3.37561 0.58208,1.73262 1.05833,3.42909 1.05833,3.76994 0,0.79842 -1.11998,1.9186 -1.91826,1.9186 -0.34067,0 -2.39991,-0.76753 -4.57609,-1.70561 l -3.95669,-1.70561 -1.1464,1.1103 c -2.71909,2.63346 -5.75728,7.40034 -7.33316,11.50561 l -0.74034,1.92866 4.5438,4.57077 c 4.00118,4.02493 4.54381,4.67286 4.54381,5.42556 0,0.55477 -0.22794,1.08273 -0.64943,1.50422 -0.6399,0.6399 -0.71721,0.64943 -5.26649,0.64943 h -4.61706 l 0.12388,1.12448 c 0.90596,8.223748 4.60268,15.698169 10.54693,21.324899 4.65088,4.40244 10.17586,7.29811 16.53092,8.66392 3.12278,0.67114 10.1115,0.69011 13.14758,0.0357 4.73708,-1.02106 9.51197,-3.10249 13.17119,-5.74145 2.10686,-1.51944 2.99753,-1.67153 3.98805,-0.68102 0.68134,0.68134 0.83336,1.68752 0.38229,2.53034 -0.40775,0.7619 -5.15073,3.81179 -7.99425,5.14058 -6.22226,2.90767 -13.65884,4.1207 -20.32055,3.31461 -12.97911,-1.57053 -24.04883,-9.38556 -29.85302,-21.075731 -0.70939,-1.42878 -1.49325,-3.22074 -1.74192,-3.98215 l -0.45212,-1.38439 -0.98479,0.5024 c -0.54163,0.27632 -1.42573,0.58512 -1.96466,0.68623 -0.53893,0.1011 -0.97988,0.28654 -0.97988,0.41207 0,0.12554 0.35632,1.12525 0.79183,2.22157 4.09494,10.308411 11.39804,18.255841 21.03629,22.892251 6.40428,3.08073 12.93508,4.4379 19.97604,4.15123 19.81259,-0.80667 36.0704,-14.78069 40.00521,-34.385559 0.85515,-4.26072 0.85525,-11.47205 2.2e-4,-15.7321 -1.3098,-6.52585 -3.92528,-12.38477 -7.90227,-17.70183 -1.54857,-2.07037 -1.76596,-3.04049 -0.91641,-4.08963 0.35952,-0.44399 0.76938,-0.6114 1.4969,-0.6114 1.19898,0 1.91231,0.73018 4.50057,4.60691 10.6176,15.90321 10.26748,36.859162 -0.87963,52.648919 -2.27665,3.22485 -7.67974,8.62794 -10.90459,10.90459 -5.81549,4.10556 -12.4689,6.84201 -19.57916,8.0526 -2.75528,0.46912 -9.7422,0.67093 -12.43542,0.3592 z m -26.0757,-68.153569 1.24172,-1.77631 -1.40749,0.16903 c -0.77412,0.093 -1.67538,0.17007 -2.0028,0.17133 -0.58223,0.002 -0.59521,0.0677 -0.59052,2.97886 l 0.005,2.97657 0.75628,-1.37159 c 0.41596,-0.75437 1.31506,-2.17092 1.99801,-3.14789 z m 5.70278,-23.44864 v -3.89274 l -3.175,1.90666 -3.17499,1.90665 v 3.89275 3.89274 l 3.17499,-1.90666 3.175,-1.90665 z m -10.58333,2.23653 v -2.31596 l -3.175,-1.90665 -3.175,-1.90666 v 3.42887 3.42886 h 1.67235 c 1.56409,0 2.30768,0.24996 4.61151,1.55017 0.0364,0.0205 0.0661,-1.00485 0.0661,-2.27863 z m 5.43696,-7.93664 c 1.65865,-0.98227 3.01573,-1.84547 3.01573,-1.91823 0,-0.20267 -5.98935,-3.70417 -6.33602,-3.70417 -0.34683,0 -6.33616,3.50162 -6.33578,3.70417 5.3e-4,0.21378 5.90516,3.68084 6.28962,3.69304 0.19289,0.006 1.70779,-0.79255 3.36645,-1.77481 z m 22.97608,73.908219 c -3.799,-2.53377 -6.98356,-4.8057 -7.07682,-5.04872 -0.539,-1.404611 0.46457,-3.044401 1.86321,-3.044401 0.50477,0 2.61502,1.25166 6.7589,4.008951 l 6.025,4.00895 6.025,-4.00895 c 4.14389,-2.757291 6.25414,-4.008951 6.7589,-4.008951 1.45066,0 2.49033,1.82566 1.78751,3.138881 -0.40128,0.7498 -13.83539,9.56112 -14.57729,9.56112 -0.41019,0 -3.25296,-1.7313 -7.56441,-4.60688 z m -12.94694,-12.975887 -0.64943,-0.64943 v -9.284472 -9.28447 l 0.64943,-0.64943 c 0.68612,-0.68612 1.6883,-0.83294 2.54735,-0.37319 0.28389,0.15194 1.57943,2.38436 2.87898,4.96094 l 2.36281,4.6847 0.014,-4.31151 c 0.0137,-4.21606 0.0284,-4.32588 0.66348,-4.96094 0.40937,-0.40937 0.95172,-0.64943 1.46723,-0.64943 0.51551,0 1.05786,0.24006 1.46723,0.64943 l 0.64944,0.64943 v 9.28447 9.284472 l -0.64944,0.64943 c -0.68611,0.68612 -1.6883,0.83294 -2.54735,0.37319 -0.28389,-0.15193 -1.57943,-2.384352 -2.87897,-4.960932 l -2.36282,-4.6847 -0.014,4.31151 c -0.0137,4.216062 -0.0284,4.325882 -0.66348,4.960932 -0.40937,0.40938 -0.95173,0.64944 -1.46724,0.64944 -0.5155,0 -1.05786,-0.24006 -1.46723,-0.64944 z m 16.93333,0 -0.64943,-0.64943 v -9.284472 -9.28447 l 0.64943,-0.64943 c 0.64417,-0.64416 0.69041,-0.64943 5.70057,-0.64943 5.01016,0 5.0564,0.005 5.70057,0.64943 0.40937,0.40938 0.64943,0.95173 0.64943,1.46724 0,0.5155 -0.24006,1.05786 -0.64943,1.46723 -0.6256,0.6256 -0.78098,0.64943 -4.23334,0.64943 h -3.5839 v 2.11667 2.11667 h 2.52557 c 2.32869,0 2.5762,0.0506 3.175,0.64943 0.40937,0.40937 0.64943,0.95173 0.64943,1.46723 0,0.51551 -0.24006,1.05787 -0.64943,1.46724 -0.5988,0.5988 -0.84631,0.64943 -3.175,0.64943 h -2.52557 v 3.5839 c 0,3.452352 -0.0238,3.607742 -0.64943,4.233332 -0.40937,0.40938 -0.95173,0.64944 -1.46723,0.64944 -0.51551,0 -1.05787,-0.24006 -1.46724,-0.64944 z m 21.16667,0 -0.64943,-0.64943 v -7.817232 -7.81724 h -1.46724 c -1.20503,0 -1.58329,-0.11606 -2.11666,-0.64943 -0.8592,-0.85919 -0.8592,-2.07527 0,-2.93447 0.64416,-0.64416 0.6904,-0.64943 5.70056,-0.64943 5.01016,0 5.05641,0.005 5.70057,0.64943 0.85919,0.8592 0.85919,2.07528 0,2.93447 -0.53337,0.53337 -0.91164,0.64943 -2.11667,0.64943 h -1.46723 v 7.81724 7.817232 l -0.64943,0.64943 c -0.40938,0.40938 -0.95173,0.64944 -1.46724,0.64944 -0.5155,0 -1.05786,-0.24006 -1.46723,-0.64944 z m -88.900001,-6.350002 -0.64943,-0.64943 v -17.75113 -17.75114 l 0.64943,-0.64943 0.64943,-0.64943 h 13.5178 13.517811 l 0.64943,0.64943 0.64943,0.64943 v 17.75114 17.75113 l -0.64943,0.64943 -0.64943,0.64944 H 93.777539 80.259739 Z M 104.36088,67.553271 V 52.736601 H 93.777539 83.194209 v 14.81667 14.81666 h 10.58333 10.583341 z m -16.283911,9.9339 c -0.40937,-0.40937 -0.64943,-0.95173 -0.64943,-1.46724 0,-0.5155 0.24006,-1.05786 0.64943,-1.46723 0.64417,-0.64416 0.69041,-0.64943 5.70057,-0.64943 5.01016,0 5.05641,0.005 5.70057,0.64943 0.40938,0.40937 0.649431,0.95173 0.649431,1.46723 0,0.51551 -0.240051,1.05787 -0.649431,1.46724 -0.64416,0.64416 -0.69041,0.64943 -5.70057,0.64943 -5.01016,0 -5.0564,-0.005 -5.70057,-0.64943 z m 0,-8.46667 c -0.40937,-0.40937 -0.64943,-0.95173 -0.64943,-1.46723 0,-0.51551 0.24006,-1.05786 0.64943,-1.46724 0.64417,-0.64416 0.69041,-0.64943 5.70057,-0.64943 5.01016,0 5.05641,0.005 5.70057,0.64943 0.40938,0.40938 0.649431,0.95173 0.649431,1.46724 0,0.5155 -0.240051,1.05786 -0.649431,1.46723 -0.64416,0.64417 -0.69041,0.64943 -5.70057,0.64943 -5.01016,0 -5.0564,-0.005 -5.70057,-0.64943 z m 4.23334,-8.46666 c -0.40938,-0.40938 -0.64943,-0.95173 -0.64943,-1.46724 0,-0.5155 0.24005,-1.05786 0.64943,-1.46723 0.61144,-0.61145 0.82107,-0.64944 3.5839,-0.64944 2.76283,0 2.97246,0.038 3.5839,0.64944 0.40938,0.40937 0.649431,0.95173 0.649431,1.46723 0,0.51551 -0.240051,1.05786 -0.649431,1.46724 -0.61144,0.61144 -0.82107,0.64943 -3.5839,0.64943 -2.76283,0 -2.97246,-0.038 -3.5839,-0.64943 z m 84.666671,23.28333 c -0.40938,-0.40937 -0.64944,-0.95173 -0.64944,-1.46724 0,-0.5155 0.24006,-1.05786 0.64944,-1.46723 0.40937,-0.40937 0.95172,-0.64943 1.46723,-0.64943 0.51551,0 1.05786,0.24006 1.46723,0.64943 0.40938,0.40937 0.64944,0.95173 0.64944,1.46723 0,0.51551 -0.24006,1.05787 -0.64944,1.46724 -0.40937,0.40937 -0.95172,0.64943 -1.46723,0.64943 -0.51551,0 -1.05786,-0.24006 -1.46723,-0.64943 z m -21.16936,-44.42861 c -1.56447,-0.7285 -3.07976,-2.38078 -3.51468,-3.83242 -0.43194,-1.44168 -0.41983,-15.07254 0.0147,-16.54321 0.4294,-1.45332 2.62125,-3.64517 4.07456,-4.074559 0.59895,-0.17697 2.10256,-0.32177 3.34133,-0.32177 h 2.2523 l 0.33255,-0.80283 c 0.48778,-1.17761 2.45361,-2.79106 3.81976,-3.13506 1.51345,-0.38109 6.18534,-0.38109 7.69878,0 1.36616,0.344 3.33199,1.95745 3.81977,3.13506 l 0.33254,0.80283 h 2.25231 c 1.23877,0 2.71351,0.13818 3.2772,0.30707 1.45164,0.434919 3.10392,1.950209 3.83242,3.514679 0.60824,1.30622 0.62287,1.51468 0.62287,8.87825 0,7.37793 -0.0135,7.56917 -0.62541,8.86354 -0.75167,1.58999 -1.73927,2.56212 -3.33817,3.28589 -1.14497,0.51828 -1.68272,0.53907 -14.02292,0.54218 l -12.83229,0.003 -1.33763,-0.62287 z m 27.27882,-4.25472 0.64944,-0.64943 v -7.16781 -7.1678 l -0.64944,-0.64943 c -0.62337,-0.62338 -0.7884,-0.64943 -4.11306,-0.64943 -3.32467,0 -3.4897,-0.0261 -4.11307,-0.64943 -0.40938,-0.40938 -0.64943,-0.95173 -0.64943,-1.46724 0,-0.51551 -0.24006,-1.05786 -0.64944,-1.46723 -0.61144,-0.611449 -0.82107,-0.649439 -3.5839,-0.649439 -2.76283,0 -2.97245,0.038 -3.5839,0.649439 -0.40937,0.40937 -0.64943,0.95172 -0.64943,1.46723 0,0.51551 -0.24006,1.05786 -0.64943,1.46724 -0.62338,0.62337 -0.78841,0.64943 -4.11307,0.64943 -3.32466,0 -3.48969,0.0261 -4.11307,0.64943 l -0.64943,0.64943 v 7.1678 7.16781 l 0.64943,0.64943 0.64943,0.64943 h 12.45947 12.45947 z m -15.63715,-2.09528 c -2.27217,-1.05804 -3.82175,-3.37809 -3.82175,-5.72196 0,-1.66429 0.60508,-3.00426 1.97541,-4.37459 2.48982,-2.48981 5.77535,-2.65692 8.38135,-0.42628 2.21233,1.89367 2.89566,4.81204 1.71266,7.31441 -1.56068,3.30129 -5.09536,4.67631 -8.24767,3.20842 z m 3.99549,-4.25472 c 1.31238,-1.31239 0.38243,-3.5839 -1.46724,-3.5839 -1.08773,0 -2.11666,1.02893 -2.11666,2.11666 0,1.08773 1.02893,2.11667 2.11666,2.11667 0.51551,0 1.05786,-0.24006 1.46724,-0.64943 z"
       id="path381" /></g></svg>
