<?xml version="1.0" encoding="UTF-8" standalone="no"?>
<!-- Created with Inkscape (http://www.inkscape.org/) -->

<svg
   width="135.32349mm"
   height="135.46034mm"
   viewBox="0 0 135.32349 135.46034"
   version="1.1"
   id="svg5"
   xml:space="preserve"
   xmlns:inkscape="http://www.inkscape.org/namespaces/inkscape"
   xmlns:sodipodi="http://sodipodi.sourceforge.net/DTD/sodipodi-0.dtd"
   xmlns="http://www.w3.org/2000/svg"
   xmlns:svg="http://www.w3.org/2000/svg"><sodipodi:namedview
     id="namedview7"
     pagecolor="#ffffff"
     bordercolor="#999999"
     borderopacity="1"
     inkscape:showpageshadow="0"
     inkscape:pageopacity="0"
     inkscape:pagecheckerboard="0"
     inkscape:deskcolor="#d1d1d1"
     inkscape:document-units="mm"
     showgrid="false" /><defs
     id="defs2" /><g
     inkscape:label="Layer 1"
     inkscape:groupmode="layer"
     id="layer1"
     transform="translate(-32.241425,-78.285536)"><path
       style="fill:#000000;stroke-width:0.264583"
       d="m 95.210447,213.5756 -0.926041,-0.0901 -2.513542,-0.27273 -2.513541,-0.27273 -3.307292,-0.67659 -3.307291,-0.67659 -3.836459,-1.26566 -3.836458,-1.26567 -2.513541,-1.13276 -2.513542,-1.13275 -2.38125,-1.31257 -2.38125,-1.31258 -2.513541,-1.64171 -2.513542,-1.64171 -2.645833,-2.13299 -2.645833,-2.13298 -3.444204,-3.53724 -3.444204,-3.53723 -1.995486,-2.65638 -1.995486,-2.65639 -1.550177,-2.50299 -1.550178,-2.50299 -1.385349,-2.69857 -1.385349,-2.69858 -1.064089,-2.72538 -1.064089,-2.72539 -0.951893,-3.14501 -0.951894,-3.14502 -0.647626,-3.60186 -0.647625,-3.60185 -0.271208,-3.04271 -0.271209,-3.04271 v -2.77813 -2.77812 l 0.271209,-3.04271 0.271208,-3.04271 0.647625,-3.60185 0.647626,-3.60186 0.951894,-3.14502 0.951893,-3.14502 1.064089,-2.72538 1.064089,-2.72538 1.385349,-2.69858 1.385349,-2.69857 1.550178,-2.503 1.550177,-2.50299 1.982404,-2.65638 1.982403,-2.65638 4.251036,-4.251036 4.251037,-4.251036 2.656382,-1.982403 2.656385,-1.982404 2.50299,-1.55146 2.502992,-1.551461 3.307292,-1.650925 3.307291,-1.650926 2.588353,-0.956642 2.588352,-0.956643 3.103899,-0.884939 3.103895,-0.884939 3.171291,-0.551901 3.171293,-0.5519 3.042708,-0.274475 3.042708,-0.274475 h 2.778124 2.778134 l 3.0427,0.271209 3.04271,0.271208 3.60186,0.647625 3.60185,0.647626 3.14502,0.951894 3.14502,0.951893 2.73799,1.069019 2.73799,1.069018 3.08284,1.58224 3.08285,1.582241 2.91041,1.91249 2.91042,1.91249 2.38125,1.907252 2.38125,1.907253 3.00127,2.968301 3.00127,2.968306 2.07899,2.57242 2.07899,2.57242 1.29836,1.92549 1.29837,1.9255 1.59767,2.77813 1.59766,2.77812 1.2515,2.77813 1.25149,2.77812 1.26598,3.83646 1.26597,3.83646 0.67499,3.30729 0.67498,3.30729 0.33609,2.51354 0.33609,2.51354 -0.0201,5.95313 -0.0201,5.95312 -0.57464,3.70417 -0.57464,3.70416 -0.77658,3.04271 -0.77659,3.04271 -0.68939,0.59531 -0.68939,0.59532 h -0.47873 -0.47873 l -0.69714,-0.54837 -0.69714,-0.54837 7.9e-4,-0.7084 7.9e-4,-0.70841 0.76401,-3.0427 0.76401,-3.04271 0.48614,-3.175 0.48613,-3.175 -0.004,-5.95313 -0.004,-5.95312 -0.4658,-3.04271 -0.4658,-3.04271 -0.80116,-3.28261 -0.80117,-3.28261 -0.9312,-2.67052 -0.93121,-2.67051 -1.93653,-3.96875 -1.93652,-3.96875 -1.82498,-2.77812 -1.82497,-2.77813 -2.13359,-2.64583 -2.1336,-2.64583 -3.1959,-3.10127 -3.1959,-3.101266 -2.64196,-1.96622 -2.64196,-1.966214 -2.46311,-1.525908 -2.46311,-1.525907 -3.175,-1.533294 -3.175,-1.533293 -2.64583,-0.957279 -2.64584,-0.957278 -3.43958,-0.87696 -3.43958,-0.87696 -3.175,-0.483036 -3.175,-0.483036 h -5.953134 -5.953122 l -3.175,0.489088 -3.174999,0.489087 -3.452567,0.868655 -3.452566,0.868656 -2.63285,0.969875 -2.63285,0.969875 -3.704167,1.817667 -3.704166,1.817668 -2.778125,1.82065 -2.778125,1.820651 -2.116666,1.685222 -2.116667,1.685231 -2.874663,2.792796 -2.874492,2.7928 -2.133576,2.64583 -2.133576,2.64583 -1.835849,2.77813 -1.835849,2.77812 -1.936278,3.96875 -1.936279,3.96875 -1.067029,3.175 -1.067029,3.175 -0.659002,2.77813 -0.659003,2.77812 -0.467947,3.04271 -0.467946,3.04271 v 5.95312 5.95313 l 0.467946,3.04271 0.467947,3.04271 0.659003,2.77812 0.659002,2.77812 1.067029,3.175 1.067029,3.175 1.944616,3.96875 1.944615,3.96875 1.824973,2.77813 1.824973,2.77812 2.13907,2.65486 2.139069,2.65485 3.179642,3.06555 3.179641,3.06556 2.612861,1.96824 2.612864,1.96824 2.50299,1.55207 2.502992,1.55206 3.266932,1.56611 3.266935,1.56611 2.833613,1.01081 2.833616,1.01081 3.29216,0.80235 3.29216,0.80235 2.778125,0.41592 2.778125,0.41592 4.36562,0.16288 4.365634,0.16287 3.30729,-0.31793 3.30729,-0.31793 3.33229,-0.64539 3.33229,-0.64539 2.69825,-0.80723 2.69825,-0.80724 2.96529,-1.18982 2.9653,-1.18982 2.77812,-1.46789 2.77813,-1.46788 2.23725,-1.45788 2.23725,-1.45788 2.12838,-1.61933 2.12837,-1.61933 3.14159,-3.04747 3.1416,-3.04748 2.13175,-2.64583 2.13174,-2.64584 1.71168,-2.61011 1.71167,-2.61011 1.83759,-3.6076 1.83758,-3.60759 0.42224,-0.33073 0.42224,-0.33073 h 0.5752 0.57521 l 0.69714,0.54837 0.69714,0.54837 v 0.79245 0.79244 l -1.86548,3.67648 -1.86547,3.67649 -1.99386,2.98634 -1.99385,2.98635 -1.93965,2.38125 -1.93965,2.38125 -2.99841,2.96766 -2.99842,2.96766 -2.38125,1.90867 -2.38125,1.90868 -2.64583,1.72225 -2.64584,1.72225 -3.43958,1.78641 -3.43958,1.78641 -3.10322,1.21186 -3.10321,1.21186 -3.37908,0.92691 -3.37907,0.92691 -3.04271,0.52072 -3.04271,0.52072 -3.04271,0.26419 -3.04271,0.26419 -3.175004,-0.0401 -3.174997,-0.0401 z m -0.263154,-15.72398 -2.24753,-0.21624 -2.911845,-0.57299 -2.911845,-0.57299 -3.042709,-0.99282 -3.042708,-0.99283 -2.615475,-1.22326 -2.615477,-1.22327 -2.279314,-1.36416 -2.279317,-1.36417 -2.513541,-1.87598 -2.513542,-1.87597 -2.794309,-2.80484 -2.794307,-2.80484 -1.86213,-2.48917 -1.862129,-2.48916 -1.364169,-2.27932 -1.36417,-2.27931 -1.210059,-2.58946 -1.210059,-2.58945 -0.920332,-2.75038 -0.920332,-2.75037 -0.638963,-3.0813 -0.638963,-3.0813 -0.303682,-3.32247 -0.303681,-3.32247 0.1801,-3.3073 0.1801,-3.30729 0.507805,-2.97233 0.507804,-2.97234 0.688851,-2.45162 0.688851,-2.45162 0.897745,-2.32581 0.897744,-2.3258 1.332073,-2.59327 1.332072,-2.59327 1.561784,-2.35697 1.561784,-2.35697 1.483711,-1.78593 1.483709,-1.78594 h 0.920221 0.920223 l 0.529167,0.52917 0.529166,0.52916 v 0.74824 0.74823 l -1.802458,2.29559 -1.802458,2.29558 -1.634389,2.71087 -1.634392,2.71087 -1.211714,2.75458 -1.211713,2.75459 -0.879273,3.06625 -0.879273,3.06624 -0.429568,2.51354 -0.429567,2.51355 -0.159771,3.43958 -0.159771,3.43958 0.310002,3.04271 0.310002,3.04271 0.541684,2.51354 0.541683,2.51354 0.884999,2.65331 0.884998,2.65331 1.038714,2.25898 1.038713,2.25897 1.520063,2.49605 1.520063,2.49605 1.731357,2.21812 1.731359,2.21813 2.354191,2.33855 2.354188,2.33855 2.432521,1.81752 2.432518,1.81752 2.116667,1.27669 2.116666,1.27669 1.984375,0.90729 1.984375,0.9073 1.719792,0.65359 1.719791,0.65359 3.026701,0.78457 3.026704,0.78456 3.321677,0.38856 3.321675,0.38856 h 2.2522 2.252204 l 3.30567,-0.39202 3.30567,-0.39201 2.64584,-0.64736 2.64583,-0.64736 2.11667,-0.78771 2.11666,-0.7877 1.81717,-0.82171 1.81717,-0.82169 2.42033,-1.42444 2.42032,-1.42443 2.45162,-1.89474 2.45163,-1.89474 2.36547,-2.3813 2.36547,-2.38129 1.81753,-2.43252 1.81752,-2.43252 1.27669,-2.11667 1.27668,-2.11667 0.9073,-1.98437 0.9073,-1.98438 0.65358,-1.71979 0.65359,-1.71979 0.78457,-3.0267 0.78457,-3.0267 0.38856,-3.32168 0.38856,-3.32167 v -2.25221 -2.2522 l -0.38856,-3.32167 -0.38856,-3.32168 -0.78457,-3.0267 -0.78457,-3.0267 -0.65359,-1.7198 -0.65358,-1.71979 -0.90624,-1.98437 -0.90624,-1.98438 -1.53075,-2.51354 -1.53075,-2.51354 -1.71455,-2.1966 -1.71455,-2.19661 -2.21004,-2.21003 -2.21004,-2.21004 -2.1966,-1.71455 -2.19661,-1.71455 -2.51354,-1.53206 -2.51354,-1.53205 -2.11666,-0.97811 -2.11667,-0.97811 -2.46381,-0.84506 -2.4638,-0.845056 -2.82786,-0.64451 -2.82786,-0.6445 -3.77032,-0.31726 -3.770314,-0.31727 -3.770311,0.31727 -3.770313,0.31726 -2.827861,0.6445 -2.827861,0.64451 -2.369857,0.813686 -2.36986,0.8137 -2.07809,0.94702 -2.078088,0.94701 -2.381482,1.40314 -2.381483,1.40314 -2.374283,1.7926 -2.374284,1.7926 h -0.731157 -0.731155 l -0.53258,-0.48198 -0.532582,-0.48198 v -1.00296 -1.00297 l 2.19316,-1.71254 2.193158,-1.71254 2.122799,-1.31661 2.1228,-1.3166 2.100185,-1.051016 2.100189,-1.05102 2.424483,-0.96545 2.424482,-0.965451 2.999476,-0.781 2.999475,-0.780998 2.476129,-0.397248 2.47613,-0.397247 3.344701,-0.16906 3.344714,-0.169059 3.12017,0.29792 3.12017,0.297921 2.81847,0.543909 2.81847,0.543909 3.07258,1.008943 3.07258,1.008941 2.88811,1.36232 2.88811,1.362316 1.99129,1.23094 1.99129,1.23094 1.85209,1.35909 1.85208,1.35909 2.08481,1.82637 2.08482,1.82637 2.10166,2.38709 2.10166,2.38709 2.119,3.1531 2.119,3.15309 1.55261,3.19691 1.55261,3.1969 0.95437,2.85664 0.95437,2.85665 0.64637,3.09648 0.64637,3.09648 0.31061,3.77031 0.31061,3.77031 -0.31061,3.77032 -0.31061,3.77031 -0.64637,3.09648 -0.64637,3.09648 -0.95437,2.85665 -0.95437,2.85664 -1.5456,3.175 -1.54559,3.175 -1.64099,2.49267 -1.64099,2.49267 -1.48569,1.87295 -1.48569,1.87296 -2.25977,2.25976 -2.25977,2.25977 -1.88122,1.49229 -1.88123,1.49229 -2.67517,1.7528 -2.67517,1.75279 -3.07565,1.46196 -3.07564,1.46197 -3.09806,1.01731 -3.09807,1.01731 -2.80163,0.54066 -2.80164,0.54066 -2.87243,0.27239 -2.87242,0.27239 -2.248964,-0.0358 -2.248954,-0.0358 z m -16.784931,-12.50235 -0.678997,-0.679 v -7.30009 -7.3001 l 0.678997,-0.67899 0.678998,-0.679 0.842356,0.16265 0.842357,0.16266 0.463021,0.55768 0.463021,0.55768 v 7.21742 7.21742 l -0.463021,0.55768 -0.463021,0.55768 -0.842357,0.16265 -0.842356,0.16265 z m 13.077624,0.38722 -0.663173,-0.21629 -0.797536,-0.41243 -0.797537,-0.41242 -0.759973,-0.75217 -0.75997,-0.75217 -0.48549,-1.05833 -0.485489,-1.05834 v -3.70416 -3.70417 l 0.485489,-1.05833 0.48549,-1.05834 0.762002,-0.7542 0.762005,-0.7542 1.0618,-0.55893 1.061802,-0.55892 h 1.719791 1.719792 l 1.058333,0.56129 1.058333,0.56129 0.712007,0.75184 0.712004,0.75183 0.53896,1.19063 0.53895,1.19062 v 3.43959 3.43958 l -0.53895,1.19063 -0.53896,1.19062 -0.712004,0.75184 -0.712007,0.75183 -0.972605,0.50032 -0.972606,0.50033 -1.408644,0.12872 -1.408644,0.12873 z m 3.375149,-4.66797 0.595312,-0.68514 v -3.0132 -3.0132 l -0.595312,-0.68515 -0.595313,-0.68514 -0.955865,-0.15209 -0.955866,-0.15208 -0.896217,0.80077 -0.896218,0.80077 v 3.08612 3.08611 l 0.896218,0.80077 0.896217,0.80077 0.955866,-0.15208 0.955865,-0.15208 z m 14.351935,4.66882 -0.66317,-0.21714 -0.83163,-0.43006 -0.83162,-0.43004 -0.95365,-1.11413 -0.95366,-1.11413 -0.26205,-0.94333 -0.26206,-0.94333 v -3.175 -3.175 l 0.26206,-0.94333 0.26205,-0.94334 0.95553,-1.11631 0.95552,-1.11631 1.09605,-0.5764 1.09605,-0.5764 h 1.71979 1.7198 l 1.09605,0.5764 1.09605,0.5764 0.95552,1.11631 0.95552,1.11631 0.26206,0.94334 0.26205,0.94333 v 3.175 3.175 l -0.26205,0.94333 -0.26206,0.94333 -0.95552,1.11632 -0.95552,1.11631 -1.06367,0.54264 -1.06367,0.54265 -1.3553,0.10236 -1.3553,0.10235 z m 3.19707,-4.51035 0.77339,-0.7734 v -3.08341 -3.08342 l -0.77339,-0.77339 -0.7734,-0.7734 h -0.83446 -0.83445 l -0.7734,0.7734 -0.7734,0.77339 v 3.08342 3.08341 l 0.7734,0.7734 0.7734,0.7734 h 0.83445 0.83446 z m 10.44822,4.12228 -0.67899,-0.679 v -7.30009 -7.3001 l 0.67899,-0.67899 0.679,-0.679 0.84236,0.16265 0.84235,0.16266 0.4746,0.57197 0.47459,0.57197 -0.0777,7.35569 -0.0777,7.35569 -0.40041,0.40001 -0.40042,0.40001 -0.83881,0.16776 -0.83882,0.16776 z m -55.940642,-21.17364 -0.889775,-0.32199 -1.032381,-0.86674 -1.03238,-0.86673 -0.591389,-1.10625 -0.591386,-1.10624 v -3.83646 -3.83646 l 0.502013,-1.01083 0.502012,-1.01082 0.815033,-0.81503 0.815033,-0.81504 1.064205,-0.48343 1.064204,-0.48344 1.529852,-0.006 1.529853,-0.006 0.983689,0.41029 0.983689,0.41028 0.883081,0.84649 0.883081,0.84648 0.553429,1.05834 0.553427,1.05833 0.115945,3.06646 0.115943,3.06646 -0.418885,1.43145 -0.418886,1.43146 -0.850233,1.02632 -0.850236,1.02632 -1.341668,0.62474 -1.341665,0.62475 -1.322916,-0.0175 -1.322917,-0.0175 -0.889772,-0.32199 z m 3.851581,-4.24504 0.742358,-0.63855 v -3.1919 -3.19189 l -0.693931,-0.69393 -0.693928,-0.69393 h -1.016881 -1.016881 l -0.736584,0.82438 -0.736587,0.82438 v 2.9266 2.92659 l 0.773399,0.7734 0.773395,0.7734 h 0.93164 0.931641 z m 10.362814,4.10151 -0.624623,-0.50579 v -7.40394 -7.40393 l 0.504028,-0.55694 0.504029,-0.55695 h 0.885034 0.885033 l 0.529167,0.52917 0.529167,0.52917 v 7.39802 7.39803 l -0.579057,0.53947 -0.579056,0.53948 h -0.71455 -0.714547 z m 8.787288,-0.19135 -0.54837,-0.69714 v -7.24036 -7.24036 l 0.529167,-0.52917 0.529166,-0.52917 h 0.906838 0.906838 l 0.548371,0.69714 0.54837,0.69714 v 7.1201 7.12009 l -0.649433,0.64943 -0.649431,0.64944 h -0.786574 -0.786572 z m 12.283929,0.20307 -1.05834,-0.48245 -0.82998,-0.70071 -0.829984,-0.70072 -0.57719,-1.22791 -0.57718,-1.22791 0.0842,-4.04373 0.0842,-4.04374 0.80114,-1.13876 0.80114,-1.13877 1.139884,-0.80113 1.13988,-0.80114 h 2.18077 2.18077 l 1.29517,0.80074 1.29518,0.80074 0.80074,1.29468 0.80075,1.29467 0.0934,3.42025 0.0934,3.42025 -0.34239,1.2229 -0.34239,1.2229 -1.33848,1.37189 -1.33848,1.37189 -1.05834,0.28859 -1.05833,0.28859 -1.19063,-0.004 -1.19062,-0.004 -1.05833,-0.48245 z m 4.12139,-4.24808 0.7734,-0.7734 v -2.81162 -2.81161 l -0.38709,-0.74855 -0.38709,-0.74855 -0.4283,-0.16435 -0.4283,-0.16436 h -0.78951 -0.7895 l -0.53417,0.28588 -0.53418,0.28588 -0.37447,0.89625 -0.37448,0.89625 0.002,1.92672 0.002,1.92673 0.27339,0.98439 0.27339,0.98438 0.57776,0.40468 0.57775,0.40468 h 0.88752 0.88753 l 0.77339,-0.7734 z m 10.34829,4.20267 -0.57906,-0.53947 v -7.39803 -7.39802 l 0.52917,-0.52917 0.52916,-0.52917 h 0.88504 0.88503 l 0.50403,0.55695 0.50403,0.55694 v 7.40393 7.40394 l -0.62462,0.50579 -0.62463,0.50579 h -0.71455 -0.71455 z m 11.98672,-0.0826 -1.32484,-0.61695 -0.85092,-0.96915 -0.85092,-0.96914 -0.43503,-1.49643 -0.43502,-1.49642 0.11594,-3.06646 0.11595,-3.06646 0.55343,-1.05833 0.55343,-1.05833 0.88308,-0.84649 0.88308,-0.84649 0.98369,-0.41028 0.98369,-0.41029 1.52985,0.006 1.52985,0.006 1.05833,0.48339 1.05834,0.4834 0.84763,0.87139 0.84763,0.87139 0.47528,0.95451 0.47529,0.9545 v 3.83646 3.83646 l -0.58619,1.09605 -0.58618,1.09605 -1.06546,0.91199 -1.06545,0.91199 -1.02489,0.30706 -1.02489,0.30707 -1.15993,-0.003 -1.15993,-0.003 -1.32484,-0.61695 z m 4.3879,-4.12003 0.7734,-0.7734 v -2.92659 -2.9266 l -0.73658,-0.82438 -0.73659,-0.82438 h -1.01688 -1.01688 l -0.69393,0.69393 -0.69393,0.69393 v 3.19189 3.1919 l 0.74236,0.63855 0.74236,0.63855 h 0.93164 0.93164 z m -69.327661,-17.85414 -0.647938,-0.36512 -0.193363,-0.49169 -0.19336,-0.49169 -0.0186,-7.08963 -0.0186,-7.08963 0.649433,-0.64944 0.64943,-0.64943 h 0.685511 0.685512 l 0.64943,0.64943 0.649433,0.64944 v 7.25875 7.25876 l -0.46302,0.54719 -0.463021,0.5472 -0.661459,0.14049 -0.661458,0.14049 -0.647938,-0.36512 z m 12.818771,0.13645 -0.79375,-0.2058 -0.83334,-0.4342 -0.833339,-0.4342 -0.953651,-1.11413 -0.953651,-1.11413 -0.262054,-0.94333 -0.262056,-0.94333 v -3.175 -3.175 l 0.280714,-1.01091 0.280715,-1.01092 0.956533,-1.05877 0.956532,-1.05876 1.076383,-0.56637 1.076381,-0.56636 h 1.719791 1.719792 l 1.07638,0.56636 1.076383,0.56637 0.956533,1.05876 0.956532,1.05877 0.280715,1.01092 0.280715,1.01091 v 3.175 3.175 l -0.262057,0.94333 -0.262054,0.94333 -0.955524,1.11632 -0.955521,1.11631 -0.991521,0.50584 -0.991521,0.50583 -1.295156,0.13198 -1.295154,0.13198 z m 3.241146,-4.67442 0.595312,-0.6765 v -3.04831 -3.0483 l -0.773398,-0.7734 -0.773396,-0.7734 h -0.834456 -0.834456 l -0.773396,0.7734 -0.773398,0.7734 v 3.00419 3.00419 l 0.425186,0.60703 0.425185,0.60704 0.567002,0.23882 0.567002,0.23883 0.79375,-0.12525 0.79375,-0.12525 z m 10.73292,4.64852 -0.578017,-0.23858 -0.281879,-0.5267 -0.281879,-0.52669 v -7.17317 -7.17317 l 0.649433,-0.64944 0.64943,-0.64943 h 0.685512 0.685511 l 0.661223,0.66122 0.66122,0.66122 -0.07793,7.39953 -0.07794,7.39953 -0.396875,0.38851 -0.396875,0.3885 -0.661458,0.13863 -0.661459,0.13863 z m 8.5512,-0.28763 -0.69714,-0.54837 v -7.50222 -7.50222 l 0.69714,-0.54837 0.69714,-0.54837 h 0.4578 0.457804 l 0.69714,0.54837 0.69714,0.54837 v 7.50222 7.50222 l -0.69714,0.54837 -0.69714,0.54837 h -0.457804 -0.4578 z m 9.154744,0.27981 -0.59916,-0.2464 -0.26074,-0.68579 -0.26073,-0.68578 v -7.00626 -7.00626 l 0.64943,-0.64944 0.64943,-0.64943 h 0.68551 0.68551 l 0.64943,0.64943 0.64944,0.64944 v 7.25875 7.25876 l -0.46302,0.54719 -0.46302,0.5472 -0.66146,0.1325 -0.66146,0.1325 z m 12.76999,0.0337 -0.79375,-0.2058 -0.83334,-0.4342 -0.83334,-0.4342 -0.95365,-1.11413 -0.95365,-1.11413 -0.26205,-0.94333 -0.26206,-0.94333 -0.002,-3.38194 -0.002,-3.38193 0.41028,-0.98369 0.41028,-0.98369 0.84649,-0.88308 0.84649,-0.88308 1.05833,-0.56234 1.05833,-0.56234 h 1.7198 1.71979 l 1.07638,0.56636 1.07638,0.56637 0.95653,1.05876 0.95653,1.05877 0.28072,1.01092 0.28071,1.01091 0.002,3.1443 0.002,3.14431 -0.30707,1.02489 -0.30706,1.02488 -0.91199,1.06546 -0.91199,1.06545 -0.99152,0.50584 -0.99152,0.50583 -1.29515,0.13198 -1.29516,0.13198 z m 3.24115,-4.67442 0.59531,-0.6765 v -3.04831 -3.0483 l -0.7734,-0.7734 -0.77339,-0.7734 h -0.83446 -0.83446 l -0.77339,0.7734 -0.7734,0.7734 v 3.00419 3.00419 l 0.42519,0.60703 0.42518,0.60704 0.567,0.23882 0.567,0.23883 0.79375,-0.12525 0.79375,-0.12525 z m 10.73292,4.64283 -0.57802,-0.23289 -0.28188,-0.5267 -0.28188,-0.52669 v -7.17317 -7.17317 l 0.64944,-0.64944 0.64943,-0.64943 h 0.68551 0.68551 l 0.64943,0.64943 0.64943,0.64944 -0.004,6.95734 -0.004,6.95733 -0.16231,0.60591 -0.16231,0.60591 -0.74698,0.38628 -0.74698,0.38628 -0.21158,-0.0168 -0.21157,-0.0168 -0.57802,-0.23289 z m -50.806798,-22.775 -1.113978,-0.55142 -0.92161,-1.02011 -0.921613,-1.02011 -0.411805,-1.38671 -0.411808,-1.3867 v -2.54979 -2.54979 l 0.422735,-1.43708 0.422733,-1.43709 1.277744,-1.239 1.277745,-1.239 1.011502,-0.28088 1.011499,-0.28088 1.265269,-0.001 1.265269,-0.001 0.983689,0.41028 0.983689,0.41029 0.883082,0.84649 0.883081,0.84648 0.572127,1.05834 0.572127,1.05833 v 3.83646 3.83646 l -0.572127,1.05833 -0.572127,1.05833 -0.883081,0.84649 -0.883082,0.84648 -0.983689,0.41029 -0.983689,0.41028 -1.529852,-2.1e-4 -1.529853,-2e-4 -1.113977,-0.55142 z m 4.530042,-4.23098 0.684977,-0.81404 v -2.91047 -2.91047 l -0.773398,-0.7734 -0.773396,-0.7734 h -0.93164 -0.93164 l -0.74236,0.63855 -0.742358,0.63855 v 3.22082 3.22082 l 0.742358,0.63854 0.74236,0.63856 h 1.020058 1.020059 z m 13.685836,4.42055 -0.88978,-0.32199 -1.00087,-0.84029 -1.000884,-0.84029 -0.55675,-1.15008 -0.55674,-1.15008 v -3.76142 -3.76142 l 0.35678,-0.8514 0.35678,-0.8514 0.75689,-0.8977 0.756884,-0.89771 1.33373,-0.62106 1.33373,-0.62107 1.4694,-0.003 1.46941,-0.003 1.35333,0.67439 1.35332,0.67439 0.69325,0.90889 0.69324,0.90889 0.38663,1.09582 0.38663,1.09581 -0.0116,3.20788 -0.0116,3.20788 -0.33955,0.94991 -0.33955,0.94991 -0.72871,0.95539 -0.72871,0.95539 -1.35333,0.67439 -1.35332,0.67439 -1.46941,-0.0201 -1.4694,-0.0201 -0.88978,-0.32199 z m 3.69082,-3.94564 0.4198,-0.32231 0.30781,-0.57792 0.3078,-0.57792 v -2.77522 -2.77522 l -0.68498,-0.81405 -0.68498,-0.81405 h -0.91992 -0.91991 l -0.53417,0.28588 -0.53418,0.28588 -0.37447,0.89625 -0.37448,0.89625 v 2.13366 2.13366 l 0.37209,0.89052 0.37208,0.89053 0.48781,0.28356 0.48782,0.28355 0.92604,-2.6e-4 0.92604,-2.7e-4 0.4198,-0.32231 z m 10.56041,3.77873 -0.52917,-0.52917 v -7.40833 -7.40833 l 0.52917,-0.52917 0.52916,-0.52917 h 0.76444 0.76444 l 0.62463,0.50579 0.62462,0.50579 v 7.40393 7.40393 l -0.50403,0.55695 -0.50403,0.55695 h -0.88503 -0.88504 z"
       id="path302" /></g></svg>
