<?xml version="1.0" encoding="UTF-8" standalone="no"?>
<!-- Created with Inkscape (http://www.inkscape.org/) -->

<svg
   width="131.02141mm"
   height="130.98566mm"
   viewBox="0 0 131.02141 130.98566"
   version="1.1"
   id="svg5"
   xml:space="preserve"
   inkscape:export-filename="nft-single.svg"
   inkscape:export-xdpi="300"
   inkscape:export-ydpi="300"
   xmlns:inkscape="http://www.inkscape.org/namespaces/inkscape"
   xmlns:sodipodi="http://sodipodi.sourceforge.net/DTD/sodipodi-0.dtd"
   xmlns="http://www.w3.org/2000/svg"
   xmlns:svg="http://www.w3.org/2000/svg"><sodipodi:namedview
     id="namedview7"
     pagecolor="#ffffff"
     bordercolor="#999999"
     borderopacity="1"
     inkscape:showpageshadow="0"
     inkscape:pageopacity="0"
     inkscape:pagecheckerboard="0"
     inkscape:deskcolor="#d1d1d1"
     inkscape:document-units="mm"
     showgrid="false" /><defs
     id="defs2" /><g
     inkscape:label="Layer 1"
     inkscape:groupmode="layer"
     id="layer1"
     transform="translate(-38.303765,-76.165128)"><path
       style="fill:#000000;stroke-width:0.264583"
       d="m 75.844531,206.99008 c -17.634122,-2.13489 -31.941253,-14.70353 -36.246565,-31.84216 -2.954968,-11.76317 -0.822044,-23.63868 6.114448,-34.0435 1.548248,-2.32238 6.588985,-7.76145 8.530902,-9.20502 l 0.756076,-0.56205 -0.938003,-2.32078 c -1.127205,-2.78889 -2.102597,-6.10619 -2.588386,-8.80306 -0.537726,-2.98521 -0.470577,-9.62516 0.129771,-12.83229 2.943704,-15.725625 14.825983,-27.611206 30.724048,-30.732582 3.283532,-0.644678 10.210218,-0.644678 13.49375,0 13.826888,2.714727 24.546268,11.929927 29.193568,25.097012 0.88266,2.50081 1.89497,7.28537 1.89497,8.95629 0,0.57469 0.0577,1.0449 0.1283,1.0449 0.0706,0 1.11316,-0.2854 2.31688,-0.63423 16.83063,-4.87732 34.60083,5.46358 39.15143,22.78316 0.76617,2.91603 0.81944,3.41978 0.81944,7.74899 0,4.31859 -0.0546,4.83774 -0.81056,7.71384 -2.99327,11.38731 -11.65526,20.07039 -22.96046,23.01634 -2.86398,0.74631 -3.57183,0.82823 -7.40023,0.85639 -3.18928,0.0235 -4.78799,-0.0876 -6.4823,-0.4504 -2.62992,-0.5631 -5.70198,-1.57664 -7.46568,-2.46309 -0.68638,-0.34499 -1.30607,-0.62725 -1.37707,-0.62725 -0.071,0 -0.20602,0.44648 -0.30004,0.99219 -1.76352,10.23585 -5.41876,17.58429 -12.00924,24.14322 -3.67133,3.65377 -6.73808,5.87333 -10.994842,7.95752 -5.921036,2.89905 -11.159119,4.18374 -17.727082,4.34772 -2.182813,0.0545 -4.861719,-0.009 -5.953125,-0.14116 z m -0.802981,-5.30301 c -1.112811,-2.18128 -0.962261,-4.42262 0.435406,-6.4822 0.362072,-0.53354 0.622662,-0.99255 0.579091,-1.02001 -0.04357,-0.0275 -0.83892,-0.19999 -1.767438,-0.38337 -3.271858,-0.6462 -7.328474,-2.4076 -10.681057,-4.63776 l -0.727604,-0.484 -0.0058,0.89032 c -0.01339,2.05301 -1.817517,4.36528 -4.074362,5.22196 l -1.259069,0.47793 2.544997,1.64866 c 4.043884,2.61965 8.107466,4.2794 13.001545,5.31041 1.298224,0.27349 2.392593,0.50564 2.431929,0.51588 0.03934,0.0102 -0.175594,-0.46578 -0.477629,-1.05782 z m 17.301362,-0.53394 c 2.853307,-0.88392 8.018088,-3.40269 10.070498,-4.91119 l 1.30117,-0.95635 -1.27968,-0.48576 c -2.27699,-0.86433 -4.081525,-3.16894 -4.094976,-5.22978 l -0.0058,-0.89032 -0.727604,0.484 c -3.352583,2.23016 -7.409199,3.99156 -10.681057,4.63776 -0.928518,0.18338 -1.723864,0.3559 -1.767438,0.38337 -0.04357,0.0275 0.217019,0.48647 0.579091,1.02001 1.389867,2.04809 1.548074,4.30119 0.452779,6.44815 l -0.531781,1.04238 2.038525,-0.36721 c 1.12119,-0.20196 3.212017,-0.73074 4.646284,-1.17506 z m -10.268648,-0.89114 c 1.312387,-1.31239 0.382434,-3.5839 -1.467233,-3.5839 -1.087729,0 -2.116667,1.02893 -2.116667,2.11666 0,1.08773 1.028938,2.11667 2.116667,2.11667 0.515506,0 1.057862,-0.24006 1.467233,-0.64943 z m -24.345908,-9.57663 c 0.714223,-0.27407 1.170147,-1.63764 0.852364,-2.54924 -0.584477,-1.67663 -3.080042,-1.74216 -3.770931,-0.099 -0.776385,1.84647 0.942798,3.40644 2.918567,2.64826 z m 48.003654,-0.0871 c 1.14349,-0.61198 1.06372,-3.08591 -0.11407,-3.53787 -1.28127,-0.49166 -2.46887,-0.0928 -2.92027,0.98076 -0.38101,0.90616 -0.13617,1.93112 0.59372,2.48537 0.52048,0.39524 1.76766,0.43189 2.44062,0.0717 z m -20.813483,-0.66501 c 5.266669,-0.91843 9.683681,-3.23711 13.570119,-7.12355 7.130294,-7.13029 9.360444,-17.18411 5.920574,-26.69067 -2.40257,-6.63984 -8.353293,-12.59055 -14.993128,-14.99313 -5.781553,-2.09201 -11.836569,-2.09201 -17.618122,0 -6.639835,2.40258 -12.590551,8.35329 -14.993124,14.99313 -3.439875,9.50656 -1.209718,19.56038 5.92057,26.69067 5.968817,5.96882 14.011393,8.55033 22.193111,7.12355 z m -6.247241,-8.43937 c -0.984191,-0.3664 -1.809041,-0.94464 -2.495097,-1.74913 -0.429964,-0.50418 -12.441031,-20.43405 -12.662069,-21.01007 -0.111874,-0.29154 1.073909,-2.07923 3.704114,-5.58436 l 3.86866,-5.15556 h 9.520137 9.520136 l 3.868661,5.15556 c 2.630204,3.50513 3.815987,5.29282 3.704113,5.58436 -0.429871,1.12023 -12.385653,20.72858 -13.034342,21.37726 -0.407152,0.40716 -1.083572,0.91781 -1.503151,1.13478 -1.102804,0.57028 -3.298629,0.69112 -4.491162,0.24716 z m -0.180922,-13.39079 v -7.40833 h -4.48487 -4.484867 l 4.418722,7.39986 c 2.430298,4.06993 4.448489,7.40368 4.484869,7.40833 0.03638,0.005 0.06615,-3.32528 0.06615,-7.39986 z m 9.033346,-0.45932 4.174662,-6.94901 h -4.487336 -4.487339 l 0.008,7.47447 c 0.0062,5.76905 0.07755,7.35459 0.312674,6.94902 0.167547,-0.28901 2.183227,-3.65252 4.479292,-7.47448 z M 73.992448,155.00621 c -0.790422,-0.80036 -1.516192,-1.4552 -1.612818,-1.4552 -0.09663,0 -0.6701,0.65484 -1.274382,1.4552 l -1.098692,1.45521 h 2.71151 2.711514 z m 16.116365,0 c -0.604282,-0.80036 -1.177753,-1.4552 -1.274381,-1.4552 -0.09663,0 -0.822397,0.65484 -1.612818,1.4552 l -1.437132,1.45521 h 2.711513 2.711511 z m -7.781991,-1.19062 1.570935,-1.5875 h -3.290726 -3.290726 l 1.570934,1.5875 c 0.864016,0.87312 1.637922,1.5875 1.719792,1.5875 0.08187,0 0.855776,-0.71438 1.719791,-1.5875 z m -30.237263,30.75758 c 1.116125,-1.16057 1.623776,-1.43421 3.297174,-1.77728 l 1.370327,-0.28094 -0.936625,-1.45124 c -1.984517,-3.07489 -4.317569,-9.02204 -4.317569,-11.00585 0,-0.78198 -0.02059,-0.78149 -1.215172,0.0292 -1.892905,1.28456 -4.341649,1.48704 -6.222309,0.51452 -0.447578,-0.23146 -0.887878,-0.34672 -0.978445,-0.25616 -0.237842,0.23784 0.626988,4.23109 1.442191,6.65913 1.048111,3.12176 2.256887,5.61919 4.087384,8.44488 l 1.648662,2.545 0.477933,-1.25907 c 0.262864,-0.69249 0.868766,-1.66546 1.346449,-2.16217 z m 60.352521,1.31796 c 1.5589,-2.35831 3.11177,-5.49873 4.0859,-8.26304 0.67883,-1.92634 0.99417,-3.16494 1.80427,-7.08672 l 0.12486,-0.60443 -1.08376,0.55289 c -2.18868,1.11658 -4.42751,0.96766 -6.48953,-0.43167 -0.53354,-0.36207 -0.99426,-0.62266 -1.02381,-0.57909 -0.0296,0.0436 -0.24247,0.97663 -0.47315,2.07346 -0.58988,2.80473 -1.84355,5.90797 -3.48812,8.63418 l -1.40849,2.33488 1.3537,0.27762 c 0.74454,0.15269 1.6021,0.41462 1.90569,0.58208 0.97684,0.53879 2.45038,2.38513 2.77904,3.4821 0.17568,0.58637 0.41322,1.00815 0.52785,0.9373 0.11464,-0.0708 0.73814,-0.93015 1.38555,-1.90956 z m 31.71436,-17.48557 c 10.35544,-2.73345 17.49744,-9.86754 20.38398,-20.3614 0.46475,-1.68955 0.55943,-2.7727 0.55943,-6.3994 0,-4.70583 -0.29049,-6.33131 -1.8293,-10.23587 -4.2286,-10.7296 -15.09077,-17.72505 -26.70414,-17.19797 -14.21401,0.64509 -25.50445,11.82915 -26.24667,25.99934 -0.72649,13.86979 8.87974,25.92945 22.7632,28.57692 2.69525,0.51396 8.42929,0.31635 11.0735,-0.38162 z m -9.30983,-3.63192 c -5.72554,-1.02534 -9.87765,-3.09038 -13.50287,-6.7156 -3.02178,-3.02178 -4.99801,-6.46803 -6.15003,-10.72474 -0.8137,-3.00663 -0.8137,-8.37046 0,-11.37709 2.28138,-8.4297 8.44507,-14.5934 16.87478,-16.87477 1.67971,-0.45459 2.85403,-0.57285 5.68854,-0.57285 3.88657,0 6.2753,0.46877 9.3729,1.83934 5.25288,2.32419 9.89302,7.05001 12.04413,12.26652 1.36415,3.30808 1.71333,5.1485 1.71333,9.03031 0,2.62463 -0.12882,4.05711 -0.48575,5.40161 -2.29644,8.65035 -8.37164,14.79266 -16.95607,17.1434 -1.79085,0.49041 -7.10572,0.85129 -8.59896,0.58387 z m 8.51076,-4.94153 c 3.12276,-1.00781 5.38569,-2.40394 7.78438,-4.80263 2.38066,-2.38066 3.76863,-4.61979 4.8253,-7.78438 0.59308,-1.77619 0.67732,-2.47269 0.67732,-5.60034 0,-3.12765 -0.0842,-3.82415 -0.67732,-5.60035 -1.05667,-3.16459 -2.44464,-5.40372 -4.8253,-7.78438 -2.38066,-2.38066 -4.61979,-3.76862 -7.78438,-4.8253 -1.77619,-0.59308 -2.47269,-0.67731 -5.60034,-0.67731 -3.12765,0 -3.82415,0.0842 -5.60034,0.67731 -3.16459,1.05668 -5.40372,2.44464 -7.78438,4.8253 -2.38066,2.38066 -3.76863,4.61979 -4.8253,7.78438 -0.59308,1.7762 -0.67732,2.4727 -0.67732,5.60035 0,3.12765 0.0842,3.82415 0.67732,5.60034 1.05667,3.16459 2.44464,5.40372 4.8253,7.78438 4.0366,4.0366 8.37449,5.75294 14.04618,5.55754 2.16308,-0.0745 3.43129,-0.26836 4.93888,-0.75491 z m -7.71701,-5.48735 v -2.11667 h -3.175 -3.175 v -10.58333 -10.58334 h 3.175 3.175 v -2.11666 -2.11667 h 2.11667 2.11667 v 2.11667 c 0,1.78223 0.0683,2.11666 0.43232,2.11666 0.99577,0 2.55317,0.67496 3.57443,1.54913 2.51124,2.14952 3.03655,5.70741 1.22643,8.3066 -0.49923,0.71686 -0.49923,0.73835 0,1.45521 0.7098,1.01922 1.11726,2.33985 1.11423,3.61136 -0.003,1.31941 -0.98095,3.47594 -2.01447,4.44283 -0.88666,0.82951 -2.88034,1.78736 -3.73763,1.79573 -0.56727,0.006 -0.59531,0.10552 -0.59531,2.12248 v 2.11666 h -2.11667 -2.11667 z m 5.70057,-6.99944 c 0.40938,-0.40937 0.64943,-0.95172 0.64943,-1.46723 0,-0.51551 -0.24005,-1.05786 -0.64943,-1.46723 -0.62559,-0.6256 -0.78098,-0.64944 -4.23333,-0.64944 h -3.5839 v 2.11667 2.11667 h 3.5839 c 3.45235,0 3.60774,-0.0238 4.23333,-0.64944 z m 0,-8.46666 c 0.40938,-0.40937 0.64943,-0.95173 0.64943,-1.46724 0,-0.5155 -0.24005,-1.05786 -0.64943,-1.46723 -0.62559,-0.62559 -0.78098,-0.64943 -4.23333,-0.64943 h -3.5839 v 2.11666 2.11667 h 3.5839 c 3.45235,0 3.60774,-0.0238 4.23333,-0.64943 z m -93.133329,27.51666 c 1.312384,-1.31238 0.382434,-3.5839 -1.467235,-3.5839 -1.087728,0 -2.116667,1.02894 -2.116667,2.11667 0,1.08773 1.028939,2.11666 2.116667,2.11666 0.515507,0 1.057861,-0.24005 1.467235,-0.64943 z m 67.180289,0.48508 c 0.23556,-0.0904 0.59585,-0.48836 0.80063,-0.88437 0.35964,-0.69546 0.32998,-0.76155 -0.86968,-1.93757 -1.06048,-1.03958 -1.31936,-1.17622 -1.77118,-0.93481 -2.4125,1.28897 -0.72204,4.73998 1.84023,3.75675 z m -63.683522,-8.14861 c 0.617228,-3.25374 2.418107,-7.4224 4.667017,-10.80318 l 0.484006,-0.7276 -0.890325,-0.006 c -2.05171,-0.0134 -4.365244,-1.81743 -5.22067,-4.07097 l -0.476648,-1.25568 -1.384518,2.07092 c -1.664547,2.48978 -3.421175,6.07894 -4.361852,8.91218 -0.790242,2.38014 -1.671794,6.42178 -1.449246,6.64432 0.08242,0.0824 0.673603,-0.0878 1.313734,-0.37819 1.567999,-0.71142 3.236222,-0.67834 4.901766,0.0972 0.746153,0.34742 1.437789,0.76298 1.536969,0.92345 0.360664,0.58357 0.563864,0.25869 0.879767,-1.4066 z m 58.999022,1.18415 c 0.32742,-0.27315 0.59531,-0.55242 0.59531,-0.6206 0,-0.0682 -0.40891,-0.80304 -0.90869,-1.63301 -1.29543,-2.15126 -2.671,-5.5626 -3.33531,-8.27133 l -0.57172,-2.33119 -1.04322,0.0995 -1.04323,0.0995 0.46508,0.69872 c 2.22724,3.34613 4.03302,7.53192 4.64809,10.77429 0.1772,0.93411 0.38432,1.69442 0.46027,1.68958 0.076,-0.005 0.40599,-0.23229 0.73342,-0.50543 z M 57.728356,142.79578 c 0.714223,-0.27407 1.170147,-1.63765 0.852364,-2.54924 -0.584477,-1.67663 -3.080042,-1.74217 -3.770931,-0.099 -0.776385,1.84647 0.942798,3.40644 2.918567,2.64826 z m 47.860164,0.0113 c 0.60412,-0.23182 0.60412,-3.41573 0,-3.64755 -1.25181,-0.48036 -2.44373,-0.0713 -2.89085,0.99204 -0.76832,1.82731 0.94581,3.4019 2.89085,2.65551 z m -39.291769,-3.72324 c 2.29276,-1.31445 5.7093,-2.60225 8.113979,-3.05842 1.66529,-0.3159 1.990175,-0.5191 1.406607,-0.87976 -0.160475,-0.0992 -0.576032,-0.79082 -0.923456,-1.53697 -0.813531,-1.7472 -0.814089,-3.34614 -0.0019,-5.0907 l 0.629905,-1.3528 -1.878383,0.35791 c -5.075843,0.96716 -9.281874,2.64443 -13.526297,5.39399 -1.390901,0.90108 -2.528971,1.67604 -2.528971,1.72215 0,0.0461 0.573379,0.27427 1.274175,0.50703 2.153867,0.71541 4.017491,3.12641 4.017491,5.1975 v 0.83268 l 0.727604,-0.48401 c 0.400183,-0.2662 1.610321,-0.99007 2.689199,-1.6086 z m 32.653968,-1.05652 c 0.62619,-1.21091 2.403201,-2.67038 3.665131,-3.01018 l 1.13673,-0.30609 -0.74334,-0.59272 c -3.585459,-2.85894 -9.845897,-5.52955 -15.478093,-6.60272 l -1.874205,-0.35711 0.540353,1.05918 c 0.849892,1.66593 0.93404,3.53109 0.232847,5.16105 -0.324191,0.75361 -0.754986,1.50759 -0.957318,1.67551 -0.551609,0.45779 -0.444638,0.76968 0.263983,0.76968 1.987034,0 7.938301,2.33606 11.009806,4.32169 l 1.455209,0.94075 0.170714,-1.13554 c 0.09389,-0.62455 0.354076,-1.49012 0.578183,-1.9235 z m -16.876455,-5.49866 c 1.312387,-1.31239 0.382434,-3.5839 -1.467233,-3.5839 -0.515506,0 -1.057863,0.24006 -1.467234,0.64943 -0.409374,0.40937 -0.649433,0.95173 -0.649433,1.46723 0,0.51551 0.240059,1.05787 0.649433,1.46724 0.409371,0.40937 0.951728,0.64943 1.467234,0.64943 0.515506,0 1.057862,-0.24006 1.467233,-0.64943 z m 25.749356,-1.45309 c 0.53094,-1.77212 2.61346,-5.68535 4.18406,-7.8622 1.76495,-2.44622 2.15253,-3.73551 2.37326,-7.89465 0.38448,-7.24467 -2.17696,-13.82358 -7.42562,-19.072235 -7.130303,-7.130292 -17.184126,-9.360449 -26.690684,-5.92057 -6.642877,2.40367 -12.590467,8.35305 -14.995685,15.000185 -2.15392,5.95265 -2.051537,12.6577 0.278831,18.26084 0.317746,0.76399 0.688268,1.38907 0.823383,1.38907 0.135117,0 1.280102,-0.29466 2.544413,-0.65479 2.675856,-0.76222 6.526501,-1.46013 8.08809,-1.46593 1.51698,-0.006 1.766467,-0.22652 1.576705,-1.39589 l -0.159245,-0.98131 H 76.33908 74.257031 v -2.11667 -2.11666 h 2.116667 2.116666 v -2.11667 -2.11667 h -2.116666 -2.116667 v -2.11666 -2.11667 h 2.086181 2.086179 l 0.182234,-1.45855 c 0.24809,-1.98563 1.721181,-4.83587 3.207335,-6.20575 0.663612,-0.611695 2.001861,-1.488955 2.973882,-1.949455 1.600391,-0.7582 2.006015,-0.83728 4.294576,-0.83728 2.389767,0 2.637137,0.0543 4.54678,0.9981 3.680187,1.818845 5.719908,4.969465 5.961607,9.208505 l 0.134623,2.3611 h -2.153364 -2.153367 v -1.49066 c 0,-2.29662 -0.475745,-3.50093 -1.975411,-5.0006 -1.925447,-1.92545 -4.055406,-2.43722 -6.524135,-1.56758 -1.530641,0.53919 -3.28421,2.28907 -3.794413,3.78644 -0.722781,2.12125 -0.695415,2.15573 1.710626,2.15573 h 2.116666 v 2.11667 2.11666 h -2.116666 -2.116667 v 2.11667 2.11667 h 2.116667 2.116666 v 2.11666 2.11667 h -2.116666 c -2.315842,0 -2.456841,0.12916 -1.858632,1.70257 0.215292,0.56626 0.426712,0.67868 1.276292,0.67868 1.355667,0 5.511136,0.72435 7.692376,1.34087 l 1.753505,0.49562 0.562055,-0.68244 c 0.756277,-0.91827 1.157737,-2.36126 1.157737,-4.16131 v -1.49066 h 2.153367 2.153364 l -0.133096,2.33433 c -0.101645,1.78268 -0.30702,2.72188 -0.86905,3.97425 -0.404773,0.90195 -0.688817,1.68028 -0.631206,1.72962 0.05761,0.0493 1.176308,0.64298 2.485994,1.3192 1.30969,0.67623 3.33375,1.93209 4.49792,2.7908 1.16417,0.85871 2.18712,1.57229 2.27322,1.58572 0.0861,0.0134 0.29734,-0.44547 0.46941,-1.01977 z m -47.234931,-3.32747 1.695706,-0.93208 -0.651479,-1.6129 c -0.772483,-1.91247 -1.927967,-6.3374 -1.927967,-7.38315 0,-1.47657 -0.150572,-1.57521 -2.404496,-1.57521 h -2.083298 l 0.148051,1.25677 c 0.499858,4.24319 2.556408,11.17864 3.314771,11.17864 0.117153,0 0.976074,-0.41943 1.908712,-0.93207 z m 62.225301,-16.25256 c -0.57359,-6.41456 -2.8518,-12.487525 -6.52429,-17.391665 -0.8515,-1.13708 -1.64127,-2.09844 -1.75504,-2.13636 -0.11377,-0.0379 -0.83668,0.5688 -1.60646,1.34827 l -1.39962,1.41721 1.51146,2.09078 c 3.55572,4.918555 5.66699,11.417385 5.66699,17.443865 v 1.95335 l 2.1428,-1.36389 2.1428,-1.36389 z M 59.877491,109.5734 c 0.633039,-4.39415 2.498362,-8.93194 5.242266,-12.752925 l 1.503786,-2.09407 -1.478121,-1.4778 -1.478121,-1.4778 -0.660966,0.79375 c -1.412715,1.69652 -3.613074,5.18664 -4.606649,7.30688 -1.534854,3.275285 -2.421026,6.538145 -3.03051,11.158265 l -0.13227,1.00264 2.154206,-0.0766 2.154205,-0.0766 z M 71.793559,90.154445 c 3.792802,-2.723701 8.343334,-4.59125 12.725447,-5.222556 l 2.305733,-0.332173 0.07661,-2.154206 0.0766,-2.154205 -1.002646,0.132269 c -4.617537,0.609145 -7.693035,1.44391 -11.073119,3.005512 -2.180087,1.007204 -5.648814,3.180239 -7.388883,4.628877 l -0.79061,0.658194 1.44303,1.461178 c 0.793665,0.80365 1.469625,1.46118 1.502135,1.46118 0.03251,0 0.989076,-0.66783 2.125703,-1.48407 z m 38.191261,0.0109 1.44617,-1.473173 -0.79375,-0.656331 c -1.73059,-1.43098 -5.20558,-3.596611 -7.39203,-4.606755 -3.380083,-1.561602 -6.455581,-2.396367 -11.073118,-3.005512 l -1.002646,-0.132269 0.0766,2.154205 0.07661,2.154206 2.305733,0.332173 c 4.413385,0.635812 9.339321,2.690019 12.934891,5.394096 0.93099,0.70016 1.75631,1.28191 1.83404,1.29277 0.0777,0.0109 0.79211,-0.64317 1.5875,-1.45341 z"
       id="path451" /></g></svg>
