<?xml version="1.0" encoding="UTF-8" standalone="no"?>
<!-- Created with Inkscape (http://www.inkscape.org/) -->

<svg
   width="121.70326mm"
   height="135.22278mm"
   viewBox="0 0 121.70326 135.22278"
   version="1.1"
   id="svg5"
   xml:space="preserve"
   xmlns:inkscape="http://www.inkscape.org/namespaces/inkscape"
   xmlns:sodipodi="http://sodipodi.sourceforge.net/DTD/sodipodi-0.dtd"
   xmlns="http://www.w3.org/2000/svg"
   xmlns:svg="http://www.w3.org/2000/svg"><sodipodi:namedview
     id="namedview7"
     pagecolor="#ffffff"
     bordercolor="#999999"
     borderopacity="1"
     inkscape:showpageshadow="0"
     inkscape:pageopacity="0"
     inkscape:pagecheckerboard="0"
     inkscape:deskcolor="#d1d1d1"
     inkscape:document-units="mm"
     showgrid="false" /><defs
     id="defs2" /><g
     inkscape:label="Layer 1"
     inkscape:groupmode="layer"
     id="layer1"
     transform="translate(-43.675675,-61.208842)"><path
       style="fill:#000000;stroke-width:0.264583"
       d="m 101.30639,196.27172 c -2.137825,-0.39223 -4.260885,-1.08959 -6.040675,-1.98419 -1.45704,-0.73236 -27.074246,-15.58041 -39.366032,-22.81703 -6.872925,-4.04634 -10.193881,-8.15067 -11.709315,-14.4714 -0.491853,-2.05147 -0.514691,-3.30314 -0.514691,-28.20819 0,-24.90505 0.02284,-26.15671 0.514691,-28.20819 1.005631,-4.194392 3.023595,-7.645305 6.198792,-10.600531 1.693428,-1.576113 4.578269,-3.341637 22.765162,-13.93229 11.454299,-6.670107 21.518643,-12.471121 22.365193,-12.891142 2.84757,-1.412828 5.328385,-1.949917 9.006625,-1.949917 3.77119,0 6.28693,0.562229 9.26041,2.069555 2.26705,1.149217 40.1145,23.182606 42.33746,24.647309 4.29794,2.831894 7.49128,7.457503 8.73789,12.657016 0.49175,2.05104 0.51478,3.30621 0.51655,28.15596 0.002,28.50764 0.049,27.57351 -1.587,31.54094 -1.10929,2.69005 -2.47904,4.66337 -4.86459,7.00817 -1.99433,1.96026 -2.91563,2.5599 -12.46824,8.11507 -5.67313,3.29913 -14.95821,8.70487 -20.63352,12.01276 -12.00598,6.99775 -13.09146,7.57093 -15.74271,8.31283 -2.22231,0.62187 -6.8023,0.90539 -8.776,0.54327 z m 8.35218,-5.15398 c 1.52556,-0.51211 7.59343,-3.91105 23.2703,-13.03493 20.45586,-11.90525 21.27706,-12.41315 23.19581,-14.34673 2.23077,-2.24802 3.66133,-4.78046 4.34576,-7.69309 0.60688,-2.58262 0.60688,-51.92154 0,-54.50416 -0.68435,-2.912276 -2.11501,-5.445044 -4.34576,-7.693524 -1.91932,-1.934572 -2.73704,-2.44027 -23.28813,-14.40216 -15.45135,-8.993554 -21.84376,-12.578371 -23.28333,-13.057116 -1.64831,-0.548167 -2.49967,-0.660831 -5.02708,-0.665257 -2.61847,-0.0046 -3.32515,0.09277 -5.068415,0.698244 -1.37747,0.478425 -6.88091,3.530098 -17.197919,9.53629 -8.344717,4.857995 -17.91065,10.424275 -21.257629,12.369513 -5.066002,2.94432 -6.399295,3.848722 -7.959121,5.398836 -2.173591,2.160061 -3.555643,4.485516 -4.327016,7.280694 -0.534558,1.93703 -0.546154,2.52704 -0.546154,27.78656 0,25.25953 0.0116,25.84953 0.546154,27.78657 0.771373,2.79517 2.153425,5.12062 4.327016,7.28068 1.559826,1.55012 2.893119,2.45452 7.959121,5.39884 3.346979,1.94524 12.871978,7.48469 21.166665,12.30989 8.294683,4.82521 15.617033,8.98625 16.271873,9.24677 3.507975,1.39557 7.633255,1.5074 11.217855,0.30408 z m -7.44232,-3.85152 c -0.6156,-0.13068 -1.63623,-0.46628 -2.268085,-0.74577 -0.63184,-0.2795 -10.42708,-5.90899 -21.767189,-12.50999 C 55.263757,160.67051 55.544386,160.86415 53.783051,157.1755 l -0.982957,-2.05855 v -26.32604 -26.32604 l 0.982957,-2.05855 c 1.760659,-3.687239 1.480595,-3.494014 24.404223,-16.837258 11.343571,-6.602798 21.106701,-12.217731 21.695831,-12.477628 0.589145,-0.259897 1.874835,-0.611997 2.857095,-0.782444 2.05151,-0.355986 4.56582,-0.03955 6.5132,0.819704 0.63546,0.28039 10.39858,5.893003 21.69583,12.472472 22.83575,13.299445 22.55257,13.103775 24.31999,16.805154 l 0.98296,2.05855 v 26.32604 26.32604 l -0.98296,2.05855 c -1.76667,3.6998 -1.4761,3.49917 -24.41694,16.86051 -11.35056,6.61087 -21.31199,12.29224 -22.13649,12.62527 -1.6962,0.68513 -4.77284,0.97148 -6.49954,0.60494 z m 4.55885,-4.71329 c 1.4057,-0.4891 40.53462,-23.17146 42.32932,-24.53758 0.64363,-0.48993 1.39635,-1.4583 1.92034,-2.47052 l 0.86178,-1.66473 v -25.08919 -25.08918 l -0.86178,-1.66474 c -0.52399,-1.01221 -1.27671,-1.98058 -1.92034,-2.470523 -1.7947,-1.366117 -40.92362,-24.048478 -42.32932,-24.537575 -1.67526,-0.582883 -2.83042,-0.581545 -4.49792,0.0052 -1.02592,0.360999 -20.559984,11.60051 -40.265558,23.168004 -2.447679,1.436831 -3.255198,2.224144 -4.089081,3.986804 l -0.756405,1.59888 -2.09e-4,25.02701 -2.08e-4,25.02701 0.809103,1.61916 c 0.898019,1.79709 1.625423,2.50322 4.0368,3.91874 19.705574,11.5675 39.239638,22.80701 40.265558,23.168 1.6675,0.58676 2.82266,0.5881 4.49792,0.005 z m -26.362884,-18.28435 -0.624623,-0.50567 -0.07277,-14.45702 -0.07277,-14.45702 0.780023,-0.78002 c 0.83171,-0.83171 1.558274,-0.9694 2.491766,-0.47222 1.246497,0.66389 1.222084,0.35718 1.230964,15.46537 0.0083,14.09091 -2.65e-4,14.32902 -0.539957,15.0151 -0.682336,0.86745 -2.242084,0.961 -3.192631,0.19148 z m 15.767519,-0.14377 c -0.80339,-0.80338 -0.84329,-1.94317 -0.10106,-2.88676 l 0.54837,-0.69714 h 7.899095 7.89909 l 0.54837,0.69714 c 0.74223,0.94359 0.70233,2.08338 -0.10106,2.88676 l -0.64943,0.64943 h -7.69697 -7.696975 z m 22.867035,0.38308 c -0.23558,-0.13765 -0.57744,-0.61028 -0.7597,-1.05029 -0.38803,-0.93678 0.006,-2.23193 0.81004,-2.66222 0.26152,-0.13996 2.90334,-0.25447 5.87072,-0.25447 5.29747,0 5.40566,0.0111 5.97052,0.61237 0.78835,0.83915 0.77072,2.28679 -0.0371,3.04568 -0.58813,0.55251 -0.82636,0.57497 -6.01927,0.56724 -2.9738,-0.004 -5.59965,-0.12067 -5.83523,-0.25831 z m -52.235785,-9.37891 c -0.841076,-0.84107 -0.845331,-2.00373 -0.01087,-2.97384 0.634616,-0.73779 0.658334,-0.74235 3.859358,-0.74235 3.201024,0 3.224742,0.005 3.859366,0.74235 0.834448,0.97011 0.830193,2.13277 -0.01087,2.97384 -0.61791,0.6179 -0.804743,0.64943 -3.848491,0.64943 -3.043748,0 -3.230581,-0.0315 -3.848483,-0.64943 z m 27.21736,0.0541 c -0.79554,-0.8838 -0.91483,-1.4533 -0.50825,-2.42638 0.56816,-1.3598 1.26257,-1.47622 8.805065,-1.47622 7.49187,0 8.37294,0.15182 8.72753,1.50391 0.27275,1.04 0.13088,1.70607 -0.51092,2.39869 -0.54775,0.59113 -0.60579,0.59531 -8.26459,0.59531 -7.663475,0 -7.716415,-0.004 -8.248835,-0.59531 z m 22.524305,-0.0541 c -0.89112,-0.89113 -0.87684,-2.2196 0.0331,-3.07476 l 0.6825,-0.64143 10.23156,-0.0792 c 5.62736,-0.0435 10.62515,-0.007 11.10621,0.0809 1.24781,0.22838 1.90347,0.98656 1.90347,2.20112 0,0.71595 -0.17923,1.18058 -0.61237,1.5875 -0.60853,0.57168 -0.68145,0.57528 -11.65368,0.57528 h -11.04133 z m -49.741665,-8.99583 c -0.910321,-0.91032 -0.862833,-2.08829 0.123965,-3.07509 0.762354,-0.76236 0.81553,-0.7734 3.724518,-0.7734 2.908988,0 2.962164,0.011 3.724518,0.7734 0.986798,0.9868 1.034286,2.16477 0.123965,3.07509 -0.617902,0.6179 -0.804735,0.64943 -3.848483,0.64943 -3.043748,0 -3.230581,-0.0315 -3.848483,-0.64943 z m 29.36875,0 c -0.91032,-0.91032 -0.86283,-2.08829 0.12396,-3.07509 l 0.7734,-0.7734 h 7.449045 7.44904 l 0.77339,0.7734 c 0.9868,0.9868 1.03429,2.16477 0.12397,3.07509 l -0.64943,0.64943 h -7.69697 -7.696975 z m 22.501695,-0.19248 c -0.81476,-0.96828 -0.76027,-2.0872 0.14576,-2.99363 0.51062,-0.51085 0.92859,-0.53279 11.51484,-0.60469 l 10.98498,-0.0746 0.78185,0.78185 c 0.99541,0.99541 1.04586,2.1701 0.13242,3.08354 l -0.64943,0.64943 h -11.101 -11.10101 z M 67.196956,137.4476 c -1.213792,-0.93192 -1.321665,-2.32572 -0.262006,-3.38537 0.762354,-0.76236 0.81553,-0.7734 3.724518,-0.7734 2.908988,0 2.962164,0.011 3.724518,0.7734 1.059659,1.05965 0.951786,2.45345 -0.262006,3.38537 -0.575194,0.44162 -6.34983,0.44162 -6.925024,0 z m 22.342059,-0.28803 c -0.55526,-0.4776 -0.729131,-0.86435 -0.729131,-1.62178 0,-0.75743 0.173871,-1.14418 0.729131,-1.62179 l 0.72913,-0.62717 h 12.009035 12.00903 l 0.72913,0.62717 c 0.55525,0.47761 0.72913,0.86436 0.72913,1.62179 0,0.75743 -0.17388,1.14418 -0.72913,1.62178 l -0.72913,0.62718 H 102.27718 90.268145 Z M 71.308901,125.76023 70.659468,125.1108 v -12.07092 -12.07092 l 0.773398,-0.7734 c 0.899644,-0.899653 1.795396,-0.985991 2.716054,-0.261803 0.357719,0.281393 2.725258,3.974803 5.261202,8.207593 l 4.610804,7.69598 0.132291,-7.56945 0.132292,-7.56945 0.742357,-0.63813 c 0.817772,-0.702973 1.505366,-0.798248 2.383891,-0.330343 1.237369,0.659033 1.222092,0.495023 1.230963,13.216423 0.0082,11.81575 -0.0031,12.08363 -0.539956,12.76614 -0.671775,0.85403 -2.349048,0.97808 -3.089651,0.22852 -0.254661,-0.25774 -2.546614,-3.95105 -5.093229,-8.20735 l -4.630208,-7.73873 -0.132292,7.70191 -0.132291,7.70192 -0.624623,0.50543 c -0.890876,0.72089 -2.291948,0.65563 -3.091569,-0.14399 z m 24.870834,0 -0.64943,-0.64943 v -12.07092 -12.07092 l 0.77339,-0.7734 0.7734,-0.773403 h 7.449045 7.44904 l 0.77339,0.773403 c 0.99625,0.99625 1.0234,2.07945 0.0759,3.02698 l -0.69754,0.69754 h -6.04933 -6.04934 v 3.43958 3.43959 h 2.61015 c 2.23999,0 2.70902,0.0778 3.30729,0.54837 0.50495,0.39719 0.69714,0.79241 0.69714,1.43357 0,2.01917 -0.83014,2.51597 -4.20415,2.51597 h -2.37836 l -0.0822,5.05098 c -0.0804,4.94242 -0.0956,5.06185 -0.7068,5.55625 -0.89095,0.7207 -2.29205,0.65537 -3.09157,-0.14416 z m 29.368755,0 -0.64944,-0.64943 v -10.59536 -10.59536 h -2.66618 c -2.61746,0 -2.68089,-0.0147 -3.47054,-0.80435 -0.67255,-0.67255 -0.77765,-0.94352 -0.64139,-1.65364 0.0896,-0.46712 0.47331,-1.12229 0.85262,-1.45594 l 0.68966,-0.606633 7.6687,0.0775 7.66869,0.0775 0.50547,0.624623 c 0.72091,0.89087 0.65567,2.29194 -0.14397,3.09158 -0.60332,0.60332 -0.83814,0.64943 -3.30728,0.64943 h -2.65786 v 10.33189 c 0,10.85538 -0.0705,11.55898 -1.20248,11.99334 -0.92043,0.3532 -2.0069,0.15402 -2.646,-0.48508 z"
       id="path302" /></g></svg>
