<?xml version="1.0" encoding="UTF-8" standalone="no"?>
<!-- Created with Inkscape (http://www.inkscape.org/) -->

<svg
   width="136.4969mm"
   height="105.75528mm"
   viewBox="0 0 136.4969 105.75528"
   version="1.1"
   id="svg5"
   sodipodi:docname="logo.svg"
   inkscape:export-filename="logo.svg"
   inkscape:export-xdpi="300"
   inkscape:export-ydpi="300"
   inkscape:version="1.2 (dc2aedaf03, 2022-05-15)"
   xmlns:inkscape="http://www.inkscape.org/namespaces/inkscape"
   xmlns:sodipodi="http://sodipodi.sourceforge.net/DTD/sodipodi-0.dtd"
   xmlns="http://www.w3.org/2000/svg"
   xmlns:svg="http://www.w3.org/2000/svg">
  <sodipodi:namedview
     id="namedview7"
     pagecolor="#ffffff"
     bordercolor="#999999"
     borderopacity="1"
     inkscape:showpageshadow="0"
     inkscape:pageopacity="0"
     inkscape:pagecheckerboard="0"
     inkscape:deskcolor="#d1d1d1"
     inkscape:document-units="mm"
     showgrid="false"
     inkscape:zoom="1.5266865"
     inkscape:cx="206.98421"
     inkscape:cy="217.13691"
     inkscape:window-width="1920"
     inkscape:window-height="1018"
     inkscape:window-x="0"
     inkscape:window-y="30"
     inkscape:window-maximized="1"
     inkscape:current-layer="layer1" />
  <defs
     id="defs2" />
  <g
     inkscape:label="Layer 1"
     inkscape:groupmode="layer"
     id="layer1"
     transform="translate(-34.747218,-95.651772)">
    <g
       id="g877">
      <path
         d="m 47.698353,141.82533 q -3.264963,0 -5.957127,-1.54655 -2.634884,-1.60385 -4.181445,-4.46784 -1.546563,-2.9213 -1.546563,-6.70179 0,-3.95231 1.603842,-6.75904 1.661123,-2.80672 4.467846,-4.296 2.806724,-1.48929 6.300808,-1.48929 2.806724,0 5.327047,1.20288 2.577602,1.20288 4.009605,3.32224 l -0.22912,1.89026 V 96.917772 h 5.269766 v 44.334768 h -5.327047 v -5.89985 l 0.572801,1.48929 q -1.661122,2.17664 -4.296005,3.60865 -2.634883,1.3747 -6.014408,1.3747 z m 1.661123,-4.52512 q 2.119362,0 3.780485,-0.74464 1.661121,-0.80191 2.749443,-2.17664 1.08832,-1.37472 1.546561,-3.26496 v -4.46784 q -0.458241,-1.71841 -1.661121,-2.97858 -1.145602,-1.31744 -2.806725,-2.06208 -1.603842,-0.80191 -3.608643,-0.80191 -2.176643,0 -4.009605,1.08832 -1.775683,1.03104 -2.864004,2.86399 -1.088322,1.83298 -1.088322,4.23874 0,2.34849 1.088322,4.23872 1.088321,1.83296 2.921283,2.97856 1.832962,1.08832 3.952326,1.08832 z"
         style="font-size:29.8295px;line-height:1.25;font-family:'Josefin Sans';-inkscape-font-specification:'Josefin Sans';stroke:#000000;stroke-width:2.532;stroke-dasharray:none;stroke-opacity:1"
         id="path593" />
      <path
         d="m 81.89447,141.82533 q -3.322245,0 -6.071688,-1.43199 -2.692164,-1.432 -4.296006,-4.18145 -1.546561,-2.80672 -1.546561,-6.81633 0,-3.95232 1.661121,-6.81633 1.661123,-2.92127 4.410566,-4.46784 2.806723,-1.54657 6.128967,-1.54657 3.322244,0 5.613447,1.54657 2.291203,1.48929 3.494085,3.55136 l -0.34368,0.91648 0.515519,-5.04063 h 4.926086 v 23.71394 h -5.327045 v -6.18625 l 0.5728,1.37472 q -0.22912,0.57281 -1.031041,1.48929 -0.744642,0.85919 -2.062082,1.77567 -1.260162,0.91648 -2.921285,1.54657 -1.661121,0.57279 -3.723203,0.57279 z m 1.432,-4.41056 q 2.004804,0 3.608646,-0.74464 1.603842,-0.74463 2.634883,-2.06207 1.08832,-1.37473 1.489282,-3.26496 v -4.63969 q -0.458241,-1.71841 -1.603842,-2.97858 -1.145602,-1.31744 -2.749444,-2.00479 -1.603842,-0.74464 -3.551364,-0.74464 -2.119364,0 -3.895045,1.03104 -1.775683,1.03104 -2.864003,2.86399 -1.031042,1.83298 -1.031042,4.29601 0,2.2912 1.088321,4.18145 1.088322,1.89024 2.921284,2.97856 1.832963,1.08832 3.952324,1.08832 z"
         style="font-size:29.8295px;line-height:1.25;font-family:'Josefin Sans';-inkscape-font-specification:'Josefin Sans';stroke:#000000;stroke-width:2.532;stroke-dasharray:none;stroke-opacity:1"
         id="path595" />
      <path
         d="m 119.58467,141.82533 q -2.69216,0 -5.21248,-1.26016 -2.46305,-1.26015 -3.83777,-3.37953 l 0.34368,-1.66111 v 17.12674 h -5.26977 v -35.45636 h 4.58241 l 0.74464,6.07169 -0.5728,-1.66113 q 1.7184,-2.17664 4.35329,-3.60864 2.63488,-1.43201 5.89984,-1.43201 3.32225,0 5.95713,1.60385 2.69216,1.60385 4.23873,4.46784 1.54656,2.86402 1.54656,6.70177 0,3.83777 -1.66112,6.64448 -1.66113,2.80673 -4.58241,4.3533 -2.864,1.48927 -6.52993,1.48927 z m -1.03104,-4.23872 q 2.2912,0 4.18145,-1.03104 1.94752,-1.08832 3.09312,-2.92127 1.1456,-1.89026 1.1456,-4.23874 0,-2.40577 -1.08832,-4.23872 -1.08832,-1.89024 -2.92128,-2.97856 -1.77569,-1.08834 -4.00961,-1.08834 -2.06208,0 -3.7232,0.80194 -1.66113,0.80191 -2.74945,2.23392 -1.08832,1.37473 -1.54656,3.20768 v 3.95233 q 0.2864,1.83296 1.37472,3.26497 1.08832,1.43198 2.69217,2.23392 1.66112,0.80191 3.55136,0.80191 z"
         style="font-size:29.8295px;line-height:1.25;font-family:'Josefin Sans';-inkscape-font-specification:'Josefin Sans';stroke:#000000;stroke-width:2.532;stroke-dasharray:none;stroke-opacity:1"
         id="path597" />
      <path
         id="path599"
         style="font-size:29.8295px;line-height:1.25;font-family:'Josefin Sans';-inkscape-font-specification:'Josefin Sans';stroke:#000000;stroke-width:2.532;stroke-dasharray:none;stroke-opacity:1"
         d="m 154.58295,116.5652 c -2.17664,0 -4.14372,0.47724 -5.90031,1.43191 -1.59669,0.86778 -2.93991,1.94115 -4.03178,3.21907 l -0.49318,-4.02085 h -4.58252 l -0.005,35.51995 h -9.9e-4 l -0.001,47.42577 h 5.28012 v -47.10127 -0.3245 l -0.003,-15.03557 c 0.88335,1.18406 2.04792,2.14584 3.49394,2.88565 1.68022,0.84011 3.41787,1.26024 5.21264,1.26024 2.44395,0 4.62011,-0.49661 6.52944,-1.48946 1.94751,-1.03104 3.47508,-2.48215 4.58251,-4.3533 1.10741,-1.87113 1.66113,-4.08602 1.66113,-6.64454 0,-2.5585 -0.51499,-4.79277 -1.54603,-6.70211 -1.03104,-1.90931 -2.4444,-3.39817 -4.23916,-4.46741 -1.75659,-1.06923 -3.74205,-1.60358 -5.95687,-1.60358 z m -1.66114,4.52497 c 1.48928,0 2.82517,0.36301 4.00896,1.08857 1.22198,0.72555 2.19583,1.71778 2.92138,2.97795 0.72555,1.22197 1.08857,2.63531 1.08857,4.23916 0,1.56565 -0.3814,2.97802 -1.14513,4.23818 -0.76373,1.22197 -1.79471,2.19584 -3.09305,2.92139 -1.26016,0.68735 -2.65416,1.03102 -4.18162,1.03102 -1.26016,0 -2.44409,-0.26718 -3.5515,-0.8018 -1.06923,-0.53462 -1.96661,-1.27906 -2.69216,-2.23371 -0.72554,-0.95467 -1.18442,-2.04274 -1.37535,-3.26471 v -3.95239 c 0.3055,-1.22197 0.82148,-2.29169 1.54703,-3.20816 0.72554,-0.95468 1.64229,-1.6991 2.7497,-2.23371 1.10742,-0.53462 2.34845,-0.80179 3.72317,-0.80179 z" />
      <path
         d="m 58.855056,155.41875 h 5.327045 v 10.53952 h 6.529928 v 4.18146 h -6.529928 v 19.41794 H 58.855056 V 170.13973 H 54.50177 v -4.18146 h 4.353286 z"
         style="font-size:29.8295px;line-height:1.25;font-family:'Josefin Sans';-inkscape-font-specification:'Josefin Sans';stroke:#000000;stroke-width:2.532;stroke-dasharray:none;stroke-opacity:1"
         id="path606" />
      <path
         d="m 75.065271,177.47156 q 0,-3.55136 1.661123,-6.41536 1.718402,-2.86401 4.696965,-4.52512 2.978564,-1.66113 6.759049,-1.66113 3.895045,0 6.816329,1.66113 2.921283,1.66111 4.525125,4.52512 1.603838,2.864 1.603838,6.41536 0,3.55137 -1.603838,6.47266 -1.603842,2.864 -4.582406,4.52513 -2.921283,1.66111 -6.816327,1.66111 -3.780485,0 -6.759049,-1.54655 -2.921284,-1.60385 -4.639686,-4.41056 -1.661123,-2.86401 -1.661123,-6.70179 z m 5.327047,0.0572 q 0,2.2912 1.031041,4.18145 1.031042,1.83296 2.749444,2.92128 1.775683,1.08832 3.895045,1.08832 2.233923,0 3.952325,-1.08832 1.775682,-1.08832 2.749444,-2.92128 0.97376,-1.89025 0.97376,-4.18145 0,-2.29121 -0.97376,-4.12416 -0.973762,-1.89024 -2.749444,-2.97856 -1.718402,-1.1456 -3.952325,-1.1456 -2.176643,0 -3.952324,1.1456 -1.718402,1.14561 -2.749444,3.03584 -0.973762,1.83296 -0.973762,4.06688 z"
         style="font-size:29.8295px;line-height:1.25;font-family:'Josefin Sans';-inkscape-font-specification:'Josefin Sans';stroke:#000000;stroke-width:2.532;stroke-dasharray:none;stroke-opacity:1"
         id="path608" />
      <path
         d="m 106.2828,177.47156 q 0,-3.55136 1.66113,-6.41536 1.7184,-2.86401 4.69696,-4.52512 2.97856,-1.66113 6.75905,-1.66113 3.89504,0 6.81633,1.66113 2.92128,1.66111 4.52512,4.52512 1.60385,2.864 1.60385,6.41536 0,3.55137 -1.60385,6.47266 -1.60384,2.864 -4.5824,4.52513 -2.92129,1.66111 -6.81633,1.66111 -3.78049,0 -6.75905,-1.54655 -2.92128,-1.60385 -4.63968,-4.41056 -1.66113,-2.86401 -1.66113,-6.70179 z m 5.32705,0.0572 q 0,2.2912 1.03104,4.18145 1.03104,1.83296 2.74944,2.92128 1.77569,1.08832 3.89505,1.08832 2.23392,0 3.95232,-1.08832 1.77569,-1.08832 2.74945,-2.92128 0.97376,-1.89025 0.97376,-4.18145 0,-2.29121 -0.97376,-4.12416 -0.97376,-1.89024 -2.74945,-2.97856 -1.7184,-1.1456 -3.95232,-1.1456 -2.17664,0 -3.95233,1.1456 -1.7184,1.14561 -2.74944,3.03584 -0.97376,1.83296 -0.97376,4.06688 z"
         style="font-size:29.8295px;line-height:1.25;font-family:'Josefin Sans';-inkscape-font-specification:'Josefin Sans';stroke:#000000;stroke-width:2.532;stroke-dasharray:none;stroke-opacity:1"
         id="path610" />
      <path
         d="m 160.75603,190.0159 q -2.52032,0 -4.92608,-0.8592 -2.34848,-0.91648 -3.89505,-2.69215 l 2.23393,-3.09314 q 1.48928,1.43201 3.03584,2.17664 1.60384,0.68738 3.1504,0.68738 1.1456,0 2.11938,-0.28641 0.97375,-0.2864 1.54654,-0.91648 0.6301,-0.68737 0.6301,-1.83297 0,-1.26016 -0.85922,-2.0048 -0.80191,-0.74463 -2.11936,-1.20288 -1.26016,-0.45823 -2.69216,-0.8592 -2.92128,-0.97375 -4.46784,-2.69217 -1.54657,-1.71839 -1.54657,-4.18143 0,-1.89024 0.91648,-3.49409 0.97377,-1.66113 2.80673,-2.69217 1.89024,-1.03104 4.63969,-1.03104 2.46303,0 4.41057,0.63009 1.94751,0.57279 3.66591,1.94752 l -2.11936,3.32224 q -1.03104,-1.08832 -2.46305,-1.60385 -1.43199,-0.51551 -2.57759,-0.57279 -0.97376,-0.0572 -1.89025,0.28641 -0.8592,0.34366 -1.432,0.97375 -0.5728,0.63008 -0.5728,1.48929 0,1.20288 0.80192,1.94752 0.80192,0.74463 2.06208,1.20288 1.31744,0.40095 2.5776,0.8592 1.77569,0.51553 3.15042,1.37472 1.37471,0.8592 2.17664,2.11936 0.8592,1.26017 0.8592,3.1504 0,2.11936 -1.03104,3.95234 -0.97376,1.77567 -3.03584,2.86399 -2.00482,1.03104 -5.15522,1.03104 z"
         style="font-size:29.8295px;line-height:1.25;font-family:'Josefin Sans';-inkscape-font-specification:'Josefin Sans';stroke:#000000;stroke-width:2.532;stroke-dasharray:none;stroke-opacity:1"
         id="path614" />
    </g>
  </g>
</svg>
