<?xml version="1.0" encoding="UTF-8" standalone="no"?>
<!-- Created with Inkscape (http://www.inkscape.org/) -->

<svg
   width="133.9649mm"
   height="103.7961mm"
   viewBox="0 0 133.9649 103.7961"
   version="1.1"
   id="svg5"
   xmlns:inkscape="http://www.inkscape.org/namespaces/inkscape"
   xmlns:sodipodi="http://sodipodi.sourceforge.net/DTD/sodipodi-0.dtd"
   xmlns="http://www.w3.org/2000/svg"
   xmlns:svg="http://www.w3.org/2000/svg">
  <sodipodi:namedview
     id="namedview7"
     pagecolor="#ffffff"
     bordercolor="#999999"
     borderopacity="1"
     inkscape:showpageshadow="0"
     inkscape:pageopacity="0"
     inkscape:pagecheckerboard="0"
     inkscape:deskcolor="#d1d1d1"
     inkscape:document-units="mm"
     showgrid="false" />
  <defs
     id="defs2" />
  <g
     inkscape:label="Layer 1"
     inkscape:groupmode="layer"
     id="layer1"
     transform="translate(-36.013215,-96.917768)">
    <g
       id="g631"
       transform="matrix(1.9202491,0,0,1.9202491,-30.795612,-135.3045)">
      <path
         d="m 40.87697,144.31973 q -1.700281,0 -3.102268,-0.80539 -1.372157,-0.83523 -2.177553,-2.3267 -0.805397,-1.52131 -0.805397,-3.49006 0,-2.05823 0.835226,-3.51988 0.865056,-1.46164 2.326701,-2.23721 1.461646,-0.77557 3.281245,-0.77557 1.461646,0 2.774144,0.62642 1.342327,0.62642 2.088065,1.73011 l -0.119318,0.98438 v -13.57242 h 2.744314 v 23.08803 H 45.947985 V 140.949 l 0.298295,0.77557 q -0.865055,1.13352 -2.237212,1.87926 -1.372157,0.7159 -3.132098,0.7159 z m 0.865056,-2.35653 q 1.103691,0 1.968747,-0.38778 0.865055,-0.41761 1.431816,-1.13352 0.56676,-0.71591 0.805396,-1.70028 v -2.3267 q -0.238636,-0.89489 -0.865055,-1.55114 -0.59659,-0.68608 -1.461646,-1.07386 -0.835226,-0.41761 -1.879258,-0.41761 -1.133521,0 -2.088065,0.56676 -0.924715,0.53693 -1.491475,1.49147 -0.566761,0.95455 -0.566761,2.20739 0,1.22301 0.566761,2.20738 0.56676,0.95454 1.521304,1.55113 0.954544,0.56676 2.058236,0.56676 z"
         style="font-size:29.8295px;line-height:1.25;font-family:'Josefin Sans';-inkscape-font-specification:'Josefin Sans';stroke-width:0.74574"
         id="path593" />
      <path
         d="m 58.685137,144.31973 q -1.730111,0 -3.161927,-0.74573 -1.401987,-0.74574 -2.237213,-2.17756 -0.805396,-1.46164 -0.805396,-3.54971 0,-2.05823 0.865055,-3.54971 0.865056,-1.5213 2.296872,-2.3267 1.461645,-0.8054 3.191756,-0.8054 1.730111,0 2.923291,0.8054 1.19318,0.77557 1.8196,1.84943 l -0.178977,0.47727 0.268465,-2.62499 H 66.232 v 12.34941 h -2.774143 v -3.22159 l 0.298295,0.71591 q -0.119318,0.2983 -0.536931,0.77557 -0.387784,0.44744 -1.073862,0.92471 -0.656249,0.47727 -1.521305,0.8054 -0.865055,0.29829 -1.938917,0.29829 z m 0.745737,-2.29687 q 1.044033,0 1.879259,-0.38778 0.835226,-0.38778 1.372157,-1.07386 0.56676,-0.71591 0.775567,-1.70028 v -2.41619 q -0.238636,-0.89489 -0.835226,-1.55114 -0.59659,-0.68608 -1.431816,-1.04403 -0.835226,-0.38778 -1.849429,-0.38778 -1.103692,0 -2.028406,0.53693 -0.924715,0.53693 -1.491475,1.49147 -0.536931,0.95455 -0.536931,2.23721 0,1.19318 0.56676,2.17756 0.566761,0.98437 1.521305,1.55113 0.954544,0.56676 2.058235,0.56676 z"
         style="font-size:29.8295px;line-height:1.25;font-family:'Josefin Sans';-inkscape-font-specification:'Josefin Sans';stroke-width:0.74574"
         id="path595" />
      <path
         d="m 78.312904,144.31973 q -1.401986,0 -2.714484,-0.65625 -1.282669,-0.65624 -1.998577,-1.75994 l 0.178977,-0.86505 v 8.91902 h -2.744314 v -18.46446 h 2.38636 l 0.387784,3.16193 -0.298295,-0.86506 q 0.894885,-1.13352 2.267042,-1.87926 1.372157,-0.74574 3.072438,-0.74574 1.730111,0 3.102268,0.83523 1.401987,0.83523 2.207383,2.3267 0.805397,1.49148 0.805397,3.49005 0,1.99858 -0.865056,3.46022 -0.865055,1.46165 -2.38636,2.26705 -1.491475,0.77556 -3.400563,0.77556 z m -0.536931,-2.20738 q 1.19318,0 2.177554,-0.53693 1.014203,-0.56676 1.610793,-1.5213 0.59659,-0.98438 0.59659,-2.20739 0,-1.25284 -0.566761,-2.20738 -0.56676,-0.98437 -1.521304,-1.55113 -0.924715,-0.56677 -2.088065,-0.56677 -1.073862,0 -1.938918,0.41762 -0.865055,0.41761 -1.431816,1.16335 -0.56676,0.71591 -0.805396,1.67045 v 2.05824 q 0.149147,0.95454 0.715908,1.70028 0.56676,0.74573 1.401986,1.16335 0.865056,0.41761 1.849429,0.41761 z"
         style="font-size:29.8295px;line-height:1.25;font-family:'Josefin Sans';-inkscape-font-specification:'Josefin Sans';stroke-width:0.74574"
         id="path597" />
      <path
         id="path599"
         style="font-size:29.8295px;line-height:1.25;font-family:'Josefin Sans';-inkscape-font-specification:'Josefin Sans';stroke-width:0.74574"
         d="m 96.53881,131.16512 c -1.13352,0 -2.15791,0.24853 -3.07268,0.74569 -0.831503,0.45191 -1.531003,1.01088 -2.099614,1.67638 l -0.256832,-2.09392 h -2.386417 l -0.0026,18.49757 h -5.17e-4 l -5.17e-4,24.69772 h 2.749703 v -24.52873 -0.16899 l -0.0015,-7.83001 c 0.460019,0.61662 1.066487,1.11748 1.819527,1.50275 0.874998,0.4375 1.779906,0.65629 2.714563,0.65629 1.272724,0 2.405993,-0.25862 3.400309,-0.77566 1.014195,-0.53693 1.809705,-1.29262 2.386415,-2.26705 0.5767,-0.97442 0.86506,-2.12786 0.86506,-3.46025 0,-1.33238 -0.26819,-2.49591 -0.80512,-3.49023 -0.53693,-0.9943 -1.27296,-1.76965 -2.20761,-2.32647 -0.91477,-0.55682 -1.94873,-0.83509 -3.102136,-0.83509 z m -0.865063,2.35645 c 0.775566,0 1.471252,0.18904 2.087728,0.56689 0.636362,0.37784 1.143513,0.89456 1.521354,1.55081 0.377839,0.63636 0.56689,1.37238 0.56689,2.20761 0,0.81534 -0.198619,1.55085 -0.596346,2.2071 -0.397726,0.63636 -0.93462,1.14352 -1.610754,1.52136 -0.656249,0.35795 -1.382193,0.53692 -2.177645,0.53692 -0.656248,0 -1.272797,-0.13914 -1.8495,-0.41755 -0.556816,-0.27841 -1.024141,-0.66609 -1.401981,-1.16324 -0.37784,-0.49716 -0.616806,-1.06379 -0.716236,-1.70015 v -2.05827 c 0.159091,-0.63636 0.427795,-1.19343 0.805636,-1.6707 0.37784,-0.49716 0.855251,-0.88483 1.431954,-1.16324 0.576702,-0.27841 1.222992,-0.41754 1.9389,-0.41754 z" />
      <path
         d="m 46.686999,156.91019 h 2.774143 v 5.48862 h 3.400563 v 2.17756 h -3.400563 v 10.1122 h -2.774143 v -10.1122 h -2.267042 v -2.17756 h 2.267042 z"
         style="font-size:29.8295px;line-height:1.25;font-family:'Josefin Sans';-inkscape-font-specification:'Josefin Sans';stroke-width:0.74574"
         id="path606" />
      <path
         d="m 55.128724,168.39454 q 0,-1.84943 0.865056,-3.3409 0.894885,-1.49148 2.446019,-2.35653 1.551134,-0.86506 3.519881,-0.86506 2.028406,0 3.549711,0.86506 1.521304,0.86505 2.35653,2.35653 0.835226,1.49147 0.835226,3.3409 0,1.84943 -0.835226,3.37074 -0.835226,1.49147 -2.38636,2.35653 -1.521304,0.86505 -3.54971,0.86505 -1.968747,0 -3.519881,-0.80539 -1.521305,-0.83523 -2.41619,-2.29687 -0.865056,-1.49148 -0.865056,-3.49006 z m 2.774144,0.0298 q 0,1.19318 0.536931,2.17756 0.536931,0.95454 1.431816,1.5213 0.924715,0.56676 2.028406,0.56676 1.163351,0 2.058236,-0.56676 0.924714,-0.56676 1.431816,-1.5213 0.507101,-0.98438 0.507101,-2.17756 0,-1.19318 -0.507101,-2.14772 -0.507102,-0.98437 -1.431816,-1.55113 -0.894885,-0.59659 -2.058236,-0.59659 -1.133521,0 -2.058235,0.59659 -0.894885,0.59659 -1.431816,1.58096 -0.507102,0.95454 -0.507102,2.11789 z"
         style="font-size:29.8295px;line-height:1.25;font-family:'Josefin Sans';-inkscape-font-specification:'Josefin Sans';stroke-width:0.74574"
         id="path608" />
      <path
         d="m 71.385746,168.39454 q 0,-1.84943 0.865056,-3.3409 0.894885,-1.49148 2.446019,-2.35653 1.551134,-0.86506 3.519881,-0.86506 2.028406,0 3.54971,0.86506 1.521305,0.86505 2.356531,2.35653 0.835226,1.49147 0.835226,3.3409 0,1.84943 -0.835226,3.37074 -0.835226,1.49147 -2.38636,2.35653 -1.521305,0.86505 -3.549711,0.86505 -1.968747,0 -3.519881,-0.80539 -1.521304,-0.83523 -2.416189,-2.29687 -0.865056,-1.49148 -0.865056,-3.49006 z m 2.774144,0.0298 q 0,1.19318 0.536931,2.17756 0.536931,0.95454 1.431816,1.5213 0.924714,0.56676 2.028406,0.56676 1.16335,0 2.058235,-0.56676 0.924715,-0.56676 1.431816,-1.5213 0.507102,-0.98438 0.507102,-2.17756 0,-1.19318 -0.507102,-2.14772 -0.507101,-0.98437 -1.431816,-1.55113 -0.894885,-0.59659 -2.058235,-0.59659 -1.133521,0 -2.058236,0.59659 -0.894885,0.59659 -1.431816,1.58096 -0.507101,0.95454 -0.507101,2.11789 z"
         style="font-size:29.8295px;line-height:1.25;font-family:'Josefin Sans';-inkscape-font-specification:'Josefin Sans';stroke-width:0.74574"
         id="path610" />
      <path
         d="m 99.75354,174.9272 q -1.312498,0 -2.565337,-0.44744 -1.223009,-0.47727 -2.028406,-1.40198 l 1.163351,-1.6108 q 0.775567,0.74574 1.580963,1.13352 0.835226,0.35796 1.640623,0.35796 0.596586,0 1.103696,-0.14915 0.5071,-0.14915 0.80539,-0.47727 0.32813,-0.35796 0.32813,-0.95455 0,-0.65625 -0.44745,-1.04403 -0.41761,-0.38778 -1.10369,-0.62642 -0.656247,-0.23863 -1.401984,-0.44744 -1.521305,-0.5071 -2.326701,-1.40199 -0.805397,-0.89488 -0.805397,-2.17755 0,-0.98437 0.477272,-1.8196 0.507102,-0.86506 1.461646,-1.40199 0.984373,-0.53693 2.416194,-0.53693 1.28266,0 2.29687,0.32813 1.0142,0.29829 1.90908,1.0142 l -1.10369,1.73011 q -0.53693,-0.56676 -1.28267,-0.83523 -0.74573,-0.26846 -1.34232,-0.29829 -0.5071,-0.0298 -0.984376,0.14915 -0.447443,0.17897 -0.745738,0.5071 -0.298295,0.32812 -0.298295,0.77557 0,0.62642 0.417613,1.0142 0.417613,0.38778 1.073862,0.62642 0.686074,0.2088 1.342324,0.44744 0.92472,0.26847 1.64063,0.71591 0.7159,0.44744 1.13352,1.10369 0.44744,0.65625 0.44744,1.64062 0,1.10369 -0.53693,2.05824 -0.5071,0.92471 -1.58096,1.49147 -1.04404,0.53693 -2.68466,0.53693 z"
         style="font-size:29.8295px;line-height:1.25;font-family:'Josefin Sans';-inkscape-font-specification:'Josefin Sans';stroke-width:0.74574"
         id="path614" />
    </g>
  </g>
</svg>
