<?xml version="1.0" encoding="UTF-8" standalone="no"?>
<!-- Created with Inkscape (http://www.inkscape.org/) -->

<svg
   width="112.20615mm"
   height="124.86825mm"
   viewBox="0 0 112.20615 124.86825"
   version="1.1"
   id="svg5"
   xml:space="preserve"
   xmlns:inkscape="http://www.inkscape.org/namespaces/inkscape"
   xmlns:sodipodi="http://sodipodi.sourceforge.net/DTD/sodipodi-0.dtd"
   xmlns="http://www.w3.org/2000/svg"
   xmlns:svg="http://www.w3.org/2000/svg"><sodipodi:namedview
     id="namedview7"
     pagecolor="#ffffff"
     bordercolor="#999999"
     borderopacity="1"
     inkscape:showpageshadow="0"
     inkscape:pageopacity="0"
     inkscape:pagecheckerboard="0"
     inkscape:deskcolor="#d1d1d1"
     inkscape:document-units="mm"
     showgrid="false" /><defs
     id="defs2" /><g
     inkscape:label="Layer 1"
     inkscape:groupmode="layer"
     id="layer1"
     transform="translate(-41.846181,-71.751806)"><g
       id="g338"><path
         style="fill:#000000;stroke-width:0.264583"
         d="m 137.77432,119.77062 -0.64944,-0.64943 v -7.81723 -7.81724 h -1.46723 c -1.20503,0 -1.5833,-0.11606 -2.11667,-0.64943 -0.85919,-0.85919 -0.85919,-2.07527 0,-2.934466 0.64416,-0.64416 0.69041,-0.64943 5.70057,-0.64943 5.01016,0 5.0564,0.005 5.70057,0.64943 0.85919,0.859196 0.85919,2.075276 0,2.934466 -0.53338,0.53337 -0.91164,0.64943 -2.11667,0.64943 h -1.46723 v 7.81724 7.81723 l -0.64944,0.64943 c -0.40937,0.40938 -0.95172,0.64944 -1.46723,0.64944 -0.51551,0 -1.05786,-0.24006 -1.46723,-0.64944 z"
         id="path324" /><path
         style="fill:#000000;stroke-width:0.264583"
         d="m 116.60765,119.77062 -0.64943,-0.64943 v -9.28447 -9.28447 l 0.64943,-0.649426 c 0.64416,-0.64416 0.69041,-0.64943 5.70057,-0.64943 5.01015,0 5.0564,0.005 5.70056,0.64943 0.40938,0.409366 0.64944,0.951726 0.64944,1.467236 0,0.5155 -0.24006,1.05786 -0.64944,1.46723 -0.62559,0.62559 -0.78098,0.64943 -4.23333,0.64943 h -3.5839 v 2.11667 2.11667 h 3.5839 c 3.45235,0 3.60774,0.0238 4.23333,0.64943 0.8592,0.85919 0.8592,2.07527 0,2.93447 -0.62559,0.62559 -0.78098,0.64943 -4.23333,0.64943 h -3.5839 v 3.5839 c 0,3.45235 -0.0238,3.60774 -0.64943,4.23333 -0.40937,0.40938 -0.95173,0.64944 -1.46724,0.64944 -0.5155,0 -1.05786,-0.24006 -1.46723,-0.64944 z"
         id="path322" /><path
         style="fill:#000000;stroke-width:0.264583"
         d="m 95.44098,119.77062 -0.64943,-0.64943 v -9.28447 -9.28447 l 0.64943,-0.649426 c 0.62858,-0.62857 1.52079,-0.81533 2.35881,-0.49375 0.22313,0.0856 2.46529,2.905546 4.98258,6.266506 l 4.57689,6.11085 0.13229,-5.76126 c 0.12998,-5.66079 0.14319,-5.77008 0.75692,-6.266516 0.86986,-0.70363 2.03879,-0.64401 2.82698,0.14417 l 0.64943,0.649426 v 9.28447 9.28447 l -0.64943,0.64943 c -0.62857,0.62858 -1.52078,0.81534 -2.35881,0.49376 -0.22313,-0.0856 -2.46528,-2.90556 -4.98257,-6.26652 l -4.57689,-6.11084 -0.1323,5.76126 c -0.12998,5.66078 -0.14318,5.77007 -0.75691,6.26652 -0.86986,0.70363 -2.0388,0.64401 -2.82699,-0.14418 z"
         id="path320" /><path
         style="fill:#000000;stroke-width:0.264583"
         d="m 73.18272,132.75916 c 2.71849,-1.13586 3.3812,-4.69982 1.26704,-6.81398 -1.71623,-1.71624 -4.166853,-1.71624 -5.883086,0 -3.271983,3.27198 0.338312,8.60133 4.616046,6.81398 z"
         id="path318" /><path
         style="fill:#000000;stroke-width:0.264583"
         d="m 69.20265,136.98554 c -2.598925,-0.84951 -4.046304,-2.10179 -5.385119,-4.65923 -0.510556,-0.97529 -0.624234,-1.59739 -0.628526,-3.43959 -0.0048,-2.05896 0.07071,-2.3898 0.893805,-3.9162 1.00118,-1.85665 1.831308,-2.65843 3.825107,-3.69449 1.152028,-0.59865 1.683052,-0.7023 3.600303,-0.70275 1.84484,-5.3e-4 2.4629,0.11093 3.43958,0.61979 2.10591,1.09719 3.11509,2.08307 4.02566,3.9327 0.7498,1.52305 0.8689,2.03867 0.8674,3.75539 -0.003,3.42214 -1.77491,6.21325 -4.83335,7.61345 -1.74396,0.79841 -4.222805,1.00805 -5.80486,0.49093 z"
         id="path316" /><path
         style="fill:#000000;stroke-width:0.264583"
         d="m 117.37293,147.53442 c -1.05981,-0.28565 -19.08626,-10.05913 -25.95077,-14.06985 -2.21786,-1.29583 -4.2064,-4.07908 -4.82243,-6.7497 -0.35076,-1.52063 -0.35076,-32.235662 0,-33.756286 0.42949,-1.861942 1.32599,-3.48637 2.74887,-4.980872 1.37323,-1.442355 1.42925,-1.474843 22.8257,-13.236383 5.43603,-2.988161 7.43619,-3.471565 10.77061,-2.603059 2.16914,0.564991 26.32506,14.043419 27.88485,15.559085 0.62544,0.607749 1.42782,1.600246 1.78306,2.205548 1.41153,2.405091 1.44592,2.881366 1.43893,19.923267 -0.004,9.42894 -0.11162,16.20909 -0.26838,16.8887 -0.90419,3.91987 -2.56524,5.55402 -9.64703,9.49081 -5.9139,3.28757 -6.8116,3.58183 -7.82758,2.56584 -0.68754,-0.68753 -0.73575,-2.04951 -0.0975,-2.75474 0.26941,-0.2977 2.57949,-1.68693 5.13351,-3.08716 5.97278,-3.27457 6.72824,-3.80124 7.61403,-5.30811 l 0.73381,-1.24833 0.078,-15.875 c 0.0574,-11.697386 -0.005,-16.175624 -0.23784,-17.017399 -0.65041,-2.352765 -1.50603,-2.948206 -14.88144,-10.35626 -12.81325,-7.096699 -13.5538,-7.428066 -15.71474,-7.031697 -0.87263,0.160064 -21.76127,11.515907 -25.38084,13.797977 -0.88829,0.560052 -1.63067,1.30922 -2.11666,2.136027 l -0.74853,1.273442 -0.0741,15.94958 c -0.0493,10.60725 0.0196,16.29752 0.20564,16.98835 0.66797,2.48064 1.03447,2.73986 14.28822,10.10579 6.76672,3.76068 12.77937,6.96784 13.36146,7.12703 1.92319,0.52594 3.29196,0.14596 7.21928,-2.00413 2.00905,-1.09989 3.97001,-1.99683 4.36562,-1.99683 0.84307,0 1.69182,0.76087 1.93658,1.73609 0.28251,1.1256 -0.60137,1.95091 -4.29043,4.0061 -4.76189,2.65288 -7.12877,3.18495 -10.32988,2.32217 z"
         id="path314" /><path
         style="fill:#000000;stroke-width:0.264583"
         d="m 71.17712,180.24553 c 1.59638,-0.71131 3.15544,-1.37356 3.46458,-1.47167 0.38748,-0.12298 1.63256,0.28981 4.00855,1.329 l 3.44649,1.50739 3.42124,-1.49093 c 1.88168,-0.82001 3.5029,-1.49093 3.6027,-1.49093 0.0998,0 1.72352,0.6699 3.60825,1.48867 l 3.42678,1.48867 2.63963,-1.1404 c 1.45181,-0.62722 2.6858,-1.21509 2.74223,-1.30639 0.0564,-0.0913 -6.67718,-6.94496 -14.96355,-15.23037 l -15.06613,-15.0644 -8.096802,8.0968 -8.096797,8.0968 1.240652,3.79609 1.240653,3.79609 -0.980176,3.6635 c -0.539099,2.01491 -0.926676,3.71699 -0.861285,3.78238 0.06539,0.0654 1.112481,-0.1785 2.326865,-0.54198 1.214385,-0.36349 2.573944,-0.65169 3.021243,-0.64045 0.447296,0.0112 2.063424,0.59484 3.591393,1.29689 1.527969,0.70204 2.913763,1.28816 3.079543,1.30248 0.16578,0.0143 1.60755,-0.55594 3.203941,-1.26724 z"
         id="path312" /><path
         style="fill:#000000;stroke-width:0.264583"
         d="m 64.29137,184.53725 -3.380388,-1.48784 -3.763361,1.13234 c -2.069846,0.62279 -4.120547,1.12347 -4.557109,1.11262 -0.844339,-0.021 -1.984375,-1.06518 -1.984375,-1.81754 0,-0.22754 0.595312,-2.61121 1.322916,-5.29704 0.727604,-2.68582 1.323613,-5.08262 1.324462,-5.32621 7.94e-4,-0.2436 -0.67527,-2.55767 -1.502492,-5.14239 l -1.50404,-4.69949 1.508369,-4.69322 c 0.829603,-2.58127 1.506421,-4.81228 1.504039,-4.9578 -0.0024,-0.14552 -0.683836,-2.38775 -1.514345,-4.98273 l -1.510017,-4.71814 1.508472,-4.55032 c 0.829657,-2.50268 1.508469,-4.76612 1.508469,-5.02988 0,-0.26375 -0.66566,-2.55914 -1.479243,-5.10086 l -1.479246,-4.62132 1.56572,-4.8423 1.565719,-4.8423 -1.399344,-5.2563 c -0.769639,-2.89096 -1.333624,-5.51813 -1.253305,-5.83816 0.209201,-0.83352 0.984165,-1.44549 1.857793,-1.46707 0.414809,-0.0102 2.444761,0.49005 4.511005,1.11176 l 3.756806,1.13038 3.122361,-1.32263 c 1.717296,-0.72744 3.343256,-1.39978 3.613242,-1.49408 0.311343,-0.10874 1.746335,0.37765 3.923442,1.32985 l 3.43257,1.5013 1.36822,-0.59433 c 3.87867,-1.68486 4.64912,-1.70869 5.38452,-0.16656 0.35807,0.75088 0.37502,1.03102 0.10224,1.68957 -0.27336,0.65996 -0.82253,1.01023 -3.34828,2.13563 -1.66171,0.74041 -3.21155,1.3462 -3.4441,1.3462 -0.23255,0 -1.91795,-0.66165 -3.74533,-1.47035 l -3.322516,-1.47034 -2.669783,1.18937 c -4.313055,1.92145 -3.836948,1.85212 -6.792994,0.98908 -2.013072,-0.58774 -2.623664,-0.68226 -2.623664,-0.40616 0,0.19792 0.41634,1.8965 0.925198,3.77462 l 0.925197,3.41476 -1.544621,4.76602 -1.544622,4.76602 1.562682,4.84866 1.562682,4.84866 -1.472425,4.54266 c -0.809834,2.49846 -1.472424,4.81001 -1.472424,5.13679 0,0.32677 0.659992,2.62373 1.466649,5.10435 l 1.466646,4.51022 -0.545608,1.7963 c -0.300085,0.98796 -0.619329,2.00853 -0.70943,2.26792 -0.0901,0.2594 3.042618,-2.7133 6.961597,-6.60598 6.551946,-6.50798 7.198675,-7.0776 8.035616,-7.0776 0.85179,0 2.06078,1.15013 18.84028,17.92288 9.86154,9.85758 17.92934,17.805 17.92843,17.66093 -7.9e-4,-0.14406 -0.35464,-1.51209 -0.78607,-3.04006 -0.43143,-1.52797 -0.78787,-3.06496 -0.7921,-3.41553 -0.004,-0.35057 0.65294,-2.70644 1.46037,-5.23528 l 1.46805,-4.59788 -1.59717,-4.84802 -1.59717,-4.84801 0.66178,-1.95525 c 0.75018,-2.21642 1.13845,-2.6167 2.53824,-2.6167 0.75282,0 1.11933,0.16625 1.53693,0.69714 0.65355,0.83085 0.67666,1.25398 0.15002,2.74664 -0.39415,1.11714 -0.38298,1.1772 1.05833,5.69134 0.80118,2.50927 1.45669,4.83273 1.45669,5.16327 0,0.33053 -0.67489,2.66237 -1.49977,5.18188 l -1.49976,4.5809 1.36747,5.10906 c 0.75211,2.80998 1.36748,5.29782 1.36748,5.52852 0,0.23071 -0.24677,0.73318 -0.54837,1.11661 -0.76296,0.96994 -1.66623,0.91083 -6.02039,-0.39393 l -3.64104,-1.09107 -3.40016,1.48794 c -1.87009,0.81837 -3.57648,1.48795 -3.79197,1.48795 -0.21549,0 -1.89671,-0.6582 -3.73604,-1.46267 l -3.34423,-1.46267 -3.2587,1.46267 c -1.79229,0.80447 -3.46664,1.46267 -3.7208,1.46267 -0.25415,0 -1.93367,-0.66052 -3.73228,-1.46783 l -3.27019,-1.46783 -3.28364,1.46783 c -1.805994,0.80731 -3.480227,1.46521 -3.720514,1.46201 -0.240287,-0.003 -1.958059,-0.67534 -3.817276,-1.49365 z"
         id="path310" /><path
         style="fill:#000000;stroke-width:0.264583"
         d="m 67.924319,195.97062 c -0.409374,-0.40937 -0.649433,-0.95173 -0.649433,-1.46723 0,-0.51551 0.240059,-1.05787 0.649433,-1.46724 l 0.64943,-0.64943 h 24.101131 24.10114 l 0.64943,-0.64943 0.64943,-0.64943 v -18.80947 -18.80947 l 0.64944,-0.64943 c 0.85919,-0.8592 2.07527,-0.8592 2.93446,0 l 0.64944,0.64943 v 18.83289 c 0,14.01307 -0.0823,19.1116 -0.32177,19.92192 -0.42939,1.45331 -2.62124,3.64516 -4.07456,4.07456 -0.82012,0.24231 -7.04581,0.32176 -25.21358,0.32176 H 68.573749 Z"
         id="path308" /><path
         style="fill:#000000;stroke-width:0.264583"
         d="m 46.10822,196.27415 c -1.298634,-0.40933 -3.513365,-2.70267 -3.911569,-4.05042 -0.467293,-1.58158 -0.467293,-95.459096 0,-97.040676 0.429395,-1.453317 2.621245,-3.645167 4.074558,-4.074562 0.804512,-0.2377 5.443812,-0.321764 17.757546,-0.321764 16.462455,0 16.677135,0.0068 17.365655,0.54837 0.53773,0.422978 0.69714,0.781591 0.69714,1.568297 0,0.786705 -0.15941,1.145317 -0.69714,1.568296 -0.6885,0.541573 -0.90347,0.548373 -17.342231,0.548373 H 47.407084 l -0.649432,0.64943 -0.649432,0.64943 v 47.384466 47.38447 l 0.649432,0.64943 0.649432,0.64943 h 7.167802 7.167803 l 0.649431,0.64943 c 0.409374,0.40937 0.649433,0.95173 0.649433,1.46724 0,0.5155 -0.240059,1.05786 -0.649433,1.46723 l -0.649431,0.64943 -7.354215,-0.027 c -4.547787,-0.0167 -7.707597,-0.13839 -8.280254,-0.31889 z"
         id="path306" /></g></g></svg>
